<?xml version="1.0"?>
<svg xmlns="http://www.w3.org/2000/svg" id="Layer_1" enable-background="new 0 0 510.57 510.57" height="512px" viewBox="0 0 510.57 510.57" width="512px" class=""><g><g><g id="XMLID_5329_"><path d="m52.48 509.908c-13.103-3.102-21.21-16.237-18.108-29.34l21.962-92.781v-96.475c0-13.465 10.915-24.38 24.38-24.38s24.38 10.915 24.38 24.38v99.321c0 1.891-.22 3.776-.656 5.616l-22.618 95.551c-3.097 13.081-16.22 21.215-29.34 18.108z" fill="#ffb69e" data-original="#FFB69E"/></g><g id="XMLID_5328_"><path d="m130.832 487.227-4.268-100.194-23.702-89.472c-3.448-13.016 4.308-26.362 17.324-29.81 13.015-3.449 26.361 4.308 29.81 17.324l24.38 92.032c.451 1.702.716 3.447.791 5.206l4.381 102.84c.573 13.453-9.868 24.822-23.32 25.396-13.449.575-24.822-9.868-25.396-23.322z" fill="#ffb69e" data-original="#FFB69E"/></g><path id="XMLID_5327_" d="m153.999 121.276c-2.275-12.433-12.356-21.42-24.072-21.42-15.089 0-25.701 0-42.449 0-11.741 0-21.793 8.961-24.072 21.42l-37.522 205.067c-.606 3.313.192 6.745 2.173 9.356s4.94 4.135 8.062 4.135h145.167c3.124 0 6.084-1.515 8.066-4.127s2.776-6.048 2.169-9.363z" fill="#ff6473" data-original="#FF6473"/><circle cx="108.703" cy="42.107" fill="#ffb69e" r="42.107" data-original="#FFB69E"/><g><path d="m365.606 212.689c-28.455-6.227-56.571 11.792-62.798 40.247l-22.885 104.568c-2.215 10.121 4.194 20.12 14.315 22.335l84.72 18.541 26.895-122.893c6.227-28.455-11.792-56.571-40.247-62.798z" fill="#64afff" data-original="#64AFFF"/><g id="XMLID_394_"><path d="m443.871 480.995-26.039-99.036h-88.965c-10.932 0-19.794-8.862-19.794-19.794s8.862-19.794 19.794-19.794h104.228c8.993 0 16.856 6.063 19.143 14.76l29.92 113.797c2.78 10.572-3.537 21.396-14.11 24.176-10.551 2.775-21.391-3.515-24.177-14.109z" fill="#5f6e9b" data-original="#5F6E9B"/></g><g id="XMLID_393_"><path d="m424.872 342.069h-67.762c-8.721 0-16.118-6.407-17.362-15.039l-4.817-33.42 16.104-16.099 18.601 10.957 2.669 18.517h52.567c9.688 0 17.542 7.854 17.542 17.542s-7.854 17.542-17.542 17.542z" fill="#ffb69e" data-original="#FFB69E"/></g><g id="XMLID_392_"><path d="m334.931 293.611 34.705-5.142-6.935-48.109c-1.383-9.589-10.283-16.243-19.865-14.86-9.589 1.382-16.242 10.276-14.86 19.865z" fill="#4699f2" data-original="#4699F2"/></g><g><circle cx="452.568" cy="478.253" fill="#a5c8cd" r="22.801" data-original="#A5C8CD" class=""/><path d="m452.568 510.57c-17.82 0-32.317-14.497-32.317-32.317s14.497-32.317 32.317-32.317 32.317 14.497 32.317 32.317-14.497 32.317-32.317 32.317zm0-45.602c-7.325 0-13.285 5.959-13.285 13.285s5.959 13.285 13.285 13.285 13.285-5.959 13.285-13.285-5.96-13.285-13.285-13.285z" fill="#3c5a73" data-original="#3C5A73" class=""/></g><ellipse cx="411.484" cy="168.598" fill="#ffb69e" rx="42.233" ry="42.233" transform="matrix(.113 -.994 .994 .113 197.371 558.341)" data-original="#FFB69E"/><g id="XMLID_391_"><path d="m388.646 409.26h-121.22c-6.553 0-12.133-4.766-13.158-11.238l-18.081-114.156c-1.617-10.206-10.29-17.613-20.623-17.613-7.358 0-13.323-5.965-13.323-13.323s5.965-13.323 13.323-13.323c23.52 0 43.261 16.86 46.94 40.09l16.302 102.918h109.841c7.358 0 13.323 5.965 13.323 13.323s-5.966 13.322-13.324 13.322z" fill="#a5c8cd" data-original="#A5C8CD" class=""/></g><g><ellipse cx="335.467" cy="419.816" fill="#6c9baa" rx="79.334" ry="79.334" transform="matrix(.987 -.16 .16 .987 -62.915 59.157)" data-original="#6C9BAA"/><g><path d="m335.467 510.57c-50.042 0-90.754-40.712-90.754-90.754s40.712-90.754 90.754-90.754 90.754 40.712 90.754 90.754-40.712 90.754-90.754 90.754zm0-158.669c-37.449 0-67.915 30.466-67.915 67.915s30.466 67.915 67.915 67.915 67.915-30.466 67.915-67.915-30.466-67.915-67.915-67.915z" fill="#3c5a73" data-original="#3C5A73" class=""/></g><ellipse cx="335.467" cy="419.816" fill="#a5c8cd" rx="19.573" ry="19.573" transform="matrix(.924 -.383 .383 .924 -135.121 160.334)" data-original="#A5C8CD" class=""/></g></g><g id="XMLID_5320_"><path d="m230.639 219.845-54.978-36.349-20.633-23.884-17.005 5.245-11.562 20.063 22.289 25.803c1.313 1.522 2.859 2.827 4.58 3.867l57.575 37.918c9.008 5.442 20.741 2.569 26.199-6.464 5.449-9.02 2.555-20.75-6.465-26.199z" fill="#ffb69e" data-original="#FFB69E"/><path d="m155.028 159.612-31.155-36.109c-6.884-7.979-18.933-8.866-26.912-1.982s-8.866 18.933-1.982 26.912l31.481 36.487z" fill="#f05462" data-original="#F05462" class="active-path"/></g></g></g> </svg>
