<svg id="Capa_1" enable-background="new 0 0 512.945 512.945" height="512" viewBox="0 0 512.945 512.945" width="512" xmlns="http://www.w3.org/2000/svg"><path d="m170.023 512.945c-13.5 0-24.445-10.944-24.445-24.445v-195.389c0-13.5 10.945-24.445 24.445-24.445s24.445 10.944 24.445 24.445v195.389c0 13.501-10.944 24.445-24.445 24.445z" fill="#55696e"/><path d="m110.573 512.945c-13.5 0-24.445-10.944-24.445-24.445v-195.389c0-13.5 10.945-24.445 24.445-24.445s24.445 10.944 24.445 24.445v195.389c0 13.501-10.945 24.445-24.445 24.445z" fill="#748488"/><g fill="#ba6746"><circle cx="140.302" cy="42.219" r="42.219"/><path d="m36.584 195.791v99.826c0 11.25 9.12 20.371 20.371 20.371s20.371-9.12 20.371-20.371v-99.826l-20.37-7.313z"/><path d="m160.893 97.894h-42.667l-.503 5.548c-1.164 12.843 8.949 23.913 21.844 23.913 12.92 0 23.042-11.112 21.838-23.976z"/><path d="m203.199 195.791v99.826c0 11.25 9.12 20.371 20.371 20.371 11.25 0 20.371-9.12 20.371-20.371v-99.826l-20.37-7.313z"/></g><path d="m243.94 195.791v-49.931c-.132-26.448-22.094-47.966-48.958-47.966h-34.094c.001.018.004.035.005.053.516 11.521-10.174 21.333-21.334 21.333-11.96 0-20.816-9.775-21.334-21.333-.001-.018 0-.035-.001-.053h-32.603c-26.906 0-48.904 21.517-49.038 48.067v49.829h40.741v-49.726c.02-3.888 3.975-7.429 8.297-7.429h.506v154.476h108.34l-.189-154.476h.703c4.281 0 8.198 3.541 8.217 7.326v49.829h40.742z" fill="#ffda52"/><path d="m402.445 512.945c-13.5 0-24.445-10.944-24.445-24.445v-195.389c0-13.5 10.945-24.445 24.445-24.445s24.445 10.944 24.445 24.445v195.389c0 13.501-10.945 24.445-24.445 24.445z" fill="#414b82"/><path d="m342.994 512.945c-13.5 0-24.445-10.944-24.445-24.445v-195.389c0-13.5 10.945-24.445 24.445-24.445s24.445 10.944 24.445 24.445v195.389c0 13.501-10.944 24.445-24.445 24.445z" fill="#5f6e9b"/><circle cx="372.723" cy="42.219" fill="#ffb69e" r="42.219"/><path d="m269.005 195.791v99.826c0 11.25 9.12 20.371 20.371 20.371s20.371-9.12 20.371-20.371v-99.826l-20.37-7.313z" fill="#ffb69e"/><path d="m393.314 97.894h-42.667l-.503 5.548c-1.164 12.843 8.949 23.913 21.844 23.913 12.92 0 23.042-11.112 21.838-23.976z" fill="#ffb69e"/><path d="m435.62 195.791v99.826c0 11.25 9.12 20.371 20.371 20.371s20.371-9.12 20.371-20.371v-99.826l-20.37-7.313z" fill="#ffb69e"/><path d="m476.361 195.791v-49.931c-.132-26.448-22.094-47.966-48.958-47.966h-34.094c.001.018.004.035.005.053.516 11.521-10.174 21.333-21.334 21.333-11.96 0-20.816-9.775-21.334-21.333-.001-.018 0-.035-.001-.053h-32.603c-26.906 0-48.904 21.517-49.038 48.067v49.829h40.741v-49.726c.02-3.888 3.975-7.429 8.297-7.429h.506v154.476h108.34l-.188-154.476h.703c4.281 0 8.198 3.541 8.217 7.326v49.829h40.741z" fill="#64afff"/></svg>