<?xml version="1.0"?>
<svg xmlns="http://www.w3.org/2000/svg" id="Layer_1" enable-background="new 0 0 512 512" height="512px" viewBox="0 0 512 512" width="512px"><g><g><path d="m503.708 302.833-112.208-56.104v265.271h105.5c8.284 0 15-6.716 15-15v-180.75c0-5.682-3.21-10.875-8.292-13.417zm-51.958 73.667v60.25c0 8.284-6.716 15-15 15s-15-6.716-15-15v-60.25c0-8.284 6.716-15 15-15s15 6.716 15 15z" data-original="#000000" class="active-path" data-old_color="#000000" fill="#2C7695"/><path d="m120.5 246.729-112.208 56.104c-5.082 2.542-8.292 7.735-8.292 13.417v180.75c0 8.284 6.716 15 15 15h105.5zm-60.25 190.021v-60.25c0-8.284 6.716-15 15-15s15 6.716 15 15v60.25c0 8.284-6.716 15-15 15s-15-6.716-15-15z" data-original="#000000" class="active-path" data-old_color="#000000" fill="#2C7695"/><path d="m271 97.061v-36.936h10c8.284 0 15-6.716 15-15s-6.716-15-15-15h-10v-15.125c0-8.284-6.716-15-15-15s-15 6.716-15 15v15.125h-10c-8.284 0-15 6.716-15 15s6.716 15 15 15h10v36.936l15-9.375z" data-original="#000000" class="active-path" data-old_color="#000000" fill="#2C7695"/><path d="m361.5 512v-322.999l-105.5-65.937-105.5 65.938v322.998h30.25v-135.5c0-8.284 6.716-15 15-15h120.5c8.284 0 15 6.716 15 15v135.5zm-105.5-200.875c-33.188 0-60.188-27-60.188-60.187s27-60.188 60.188-60.188 60.188 27 60.188 60.188-27 60.187-60.188 60.187z" data-original="#000000" class="active-path" data-old_color="#000000" fill="#2C7695"/><path d="m210.75 391.5h30.25v120.5h-30.25z" data-original="#000000" class="active-path" data-old_color="#000000" fill="#2C7695"/><path d="m271 391.5h30.25v120.5h-30.25z" data-original="#000000" class="active-path" data-old_color="#000000" fill="#2C7695"/><ellipse cx="256" cy="250.938" rx="30.188" ry="30.188" transform="matrix(.858 -.513 .513 .858 -92.485 166.891)" data-original="#000000" class="active-path" data-old_color="#000000" fill="#2C7695"/></g></g> </svg>
