<svg id="Layer_3" enable-background="new 0 0 64 64" height="512" viewBox="0 0 64 64" width="512" xmlns="http://www.w3.org/2000/svg"><g><path d="m18 18h-.027c-.833.62-1.854 1-2.973 1s-2.14-.38-2.973-1h-.027l-10 4v12l5 9h16l5-9v-12z" fill="#4472b0"/><path d="m25.831 21.132-7.831-3.132h-.027c-.833.62-1.854 1-2.973 1s-2.14-.38-2.973-1h-.027l-10 4v12l2.212 3.981c10.11-.314 18.612-7.281 21.619-16.849z" fill="#698ec0"/><g fill="#f9d296"><path d="m15 22v7l6 8 3-3-6-6v-4z"/><path d="m15 22v7l-6 8-3-3 6-6v-4z"/><path d="m15 19c-2.761 0-5-2.239-5-5v-2c0-2.761 2.239-5 5-5 2.761 0 5 2.239 5 5v2c0 2.761-2.239 5-5 5z"/></g><path d="m52 18h-.027c-.833.62-1.854 1-2.973 1s-2.14-.38-2.973-1h-.027l-10 4v12l5 9h16l5-9v-12z" fill="#4472b0"/><path d="m59.831 21.132-7.831-3.132h-.027c-.833.62-1.854 1-2.973 1s-2.14-.38-2.973-1h-.027l-10 4v12l2.212 3.981c10.11-.314 18.612-7.281 21.619-16.849z" fill="#698ec0"/><path d="m49 22v7l6 8 3-3-6-6v-4z" fill="#f9d296"/><path d="m49 22v7l-6 8-3-3 6-6v-4z" fill="#f9d296"/><path d="m49 19c-2.761 0-5-2.239-5-5v-2c0-2.761 2.239-5 5-5 2.761 0 5 2.239 5 5v2c0 2.761-2.239 5-5 5z" fill="#f9d296"/><path d="m35 31h-.027c-.833.62-1.854 1-2.973 1s-2.14-.38-2.973-1h-.027l-10 4v12l5 9h16l5-9v-12z" fill="#4472b0"/><path d="m42.831 34.132-7.831-3.132h-.027c-.833.62-1.854 1-2.973 1s-2.14-.38-2.973-1h-.027l-10 4v12l2.212 3.981c10.11-.314 18.612-7.281 21.619-16.849z" fill="#698ec0"/><path d="m32 35v7l6 8 3-3-6-6v-4z" fill="#f9d296"/><path d="m32 35v7l-6 8-3-3 6-6v-4z" fill="#f9d296"/><path d="m32 32c-2.761 0-5-2.239-5-5v-2c0-2.761 2.239-5 5-5 2.761 0 5 2.239 5 5v2c0 2.761-2.239 5-5 5z" fill="#f9d296"/><g><path d="m1 55h62v2h-62z" fill="#a0a8b2"/></g></g></svg>