<svg height="512" viewBox="0 0 512 512" width="512" xmlns="http://www.w3.org/2000/svg"><path d="m323.777 296h8.446a83.776 83.776 0 0 0 74.932-46.311 83.769 83.769 0 0 0 8.845-37.466v-100.223h-176v100.223a83.769 83.769 0 0 0 8.845 37.466 83.776 83.776 0 0 0 74.932 46.311z" fill="#743b20"/><path d="m360 280v-64h-64v64h-24v40h112v-40z" fill="#fec9a3"/><path d="m408 280h-32l-48 16-48-16h-35.307a48 48 0 0 0 -46.319 35.408l-37.649 138.492a27.842 27.842 0 0 0 53.9 13.91l26.575-73.116a63.881 63.881 0 0 0 14.112 53.306v48h192.688v-176a40 40 0 0 0 -40-40z" fill="#d6d6d4"/><path d="m400 496v-48a62.085 62.085 0 0 0 0-80v-88h-22.6l-49.4 104-48-104h-24v88c-23 23.5-20.482 56.443-.688 80v48" fill="#354766"/><path d="m400 332.113c-40.642 93.805-96.683 141.866-130.519 163.887h130.519v-48a62.086 62.086 0 0 0 0-80z" fill="#31425e"/><path d="m328 296-40-16v48l40-16 40 16v-48z" fill="#2e3e51"/><path d="m352 368h64v32h-64z" fill="#ffb531"/><path d="m352 384h64v16h-64z" fill="#f98500"/><path d="m208 384h-48v77.075a26.925 26.925 0 1 0 53.77-2.065z" fill="#e0e0de"/><path d="m160 352h48v32h-48z" fill="#ebebe9"/><path d="m112 312h72a24 24 0 0 1 24 24v16a0 0 0 0 1 0 0h-56a40 40 0 0 1 -40-40 0 0 0 0 1 0 0z" fill="#fec9a3"/><path d="m184 312h-72a39.781 39.781 0 0 0 3.377 16h91.153a23.929 23.929 0 0 0 -22.53-16z" fill="#fec093"/><path d="m64 280h192a0 0 0 0 1 0 0 32 32 0 0 1 -32 32h-128a32 32 0 0 1 -32-32 0 0 0 0 1 0 0z" fill="#49648e"/><path d="m223.981 280a32 32 0 0 1 -32 32h32.019a32 32 0 0 0 32-32z" fill="#425b82"/><path d="m332.824 256a43.894 43.894 0 0 0 27.176-9.81v-30.19h-64v30.19a43.894 43.894 0 0 0 27.176 9.81z" fill="#feb784"/><path d="m400 112v56a72.006 72.006 0 0 1 -72 72c-1.73 0-3.44-.06-5.14-.18a72.017 72.017 0 0 1 -66.86-71.82v-56a64 64 0 0 1 64-64h16c1.34 0 2.67.04 3.98.13a63.987 63.987 0 0 1 60.02 63.87z" fill="#fec9a3"/><path d="m400 112v56a72.006 72.006 0 0 1 -72 72c-1.73 0-3.44-.06-5.14-.18a87.9 87.9 0 0 0 37.14-71.82v-64a87.574 87.574 0 0 0 -20.02-55.87 63.987 63.987 0 0 1 60.02 63.87z" fill="#fec093"/><path d="m224 112h8a24 24 0 0 1 24 24 24 24 0 0 1 -24 24h-8a0 0 0 0 1 0 0v-48a0 0 0 0 1 0 0z" fill="#feb784" transform="matrix(-1 0 0 -1 480 272)"/><path d="m328 200a24.027 24.027 0 0 1 -24-24h16a8 8 0 0 0 16 0h16a24.027 24.027 0 0 1 -24 24z" fill="#f7a468"/><g fill="#7a432a"><path d="m364 152a12 12 0 1 1 12-12 12.013 12.013 0 0 1 -12 12z"/><path d="m292 152a12 12 0 1 1 12-12 12.013 12.013 0 0 1 -12 12z"/><path d="m416 104v136a40.015 40.015 0 0 1 -40 40v-166.94a16 16 0 0 0 -7.77-13.72l-8.79-5.27-63.44-38.07-40 56h-16v-8a79.947 79.947 0 0 1 80-80h16a80 80 0 0 1 80 80z"/></g><path d="m368.232 99.339-72.232-43.339-5.714 8-34.286 48a31.09 31.09 0 0 0 25.3-13.02l17.1-23.94 51.992 31.195a49.826 49.826 0 0 1 15.823 15.088l9.785 14.677v-22.941a16 16 0 0 0 -7.768-13.72z" fill="#fec093"/><path d="m240 184-17.14 24-14.88 20.83-7.98 11.17-7.98-11.17-14.88-20.83-17.14-24z" fill="#e0e0de"/><path d="m222.86 208-14.88 20.83h-15.96l-14.88-20.83z" fill="#f35244"/><path d="m222.857 208-22.857 32 40-56h-25.472l-16.167 24z" fill="#d6d6d4"/><path d="m198.361 208-10.298 15.288 11.937 16.712 22.857-32z" fill="#de4132"/><path d="m192 228.833h16v51.167h-16z" fill="#e0e0de"/><path d="m192 228.833h16v11.167h-16z" fill="#d6d6d4"/><path d="m416 104v136a40.015 40.015 0 0 1 -40 40v-166.94a16 16 0 0 0 -7.77-13.72l-8.79-5.27a88.13 88.13 0 0 0 -49.43-69.45 80.346 80.346 0 0 1 9.99-.62h16a80 80 0 0 1 80 80z" fill="#743b20"/><path d="m160 184-17.14 24-14.88 20.83-7.98 11.17-7.98-11.17-14.88-20.83-17.14-24z" fill="#e0e0de"/><path d="m142.86 208-14.88 20.83h-15.96l-14.88-20.83z" fill="#f35244"/><path d="m142.857 208-22.857 32 40-56h-25.472l-16.167 24z" fill="#d6d6d4"/><path d="m118.361 208-10.298 15.288 11.937 16.712 22.857-32z" fill="#de4132"/><path d="m112 228.833h16v51.167h-16z" fill="#e0e0de"/><path d="m112 228.833h16v11.167h-16z" fill="#d6d6d4"/></svg>