<?xml version="1.0"?>
<svg xmlns="http://www.w3.org/2000/svg" xmlns:xlink="http://www.w3.org/1999/xlink" version="1.1" id="Layer_1" x="0px" y="0px" viewBox="0 0 509.243 509.243" style="enable-background:new 0 0 509.243 509.243;" xml:space="preserve" width="512px" height="512px"><g><g>
	<path d="M76.455,74.33h33.887l-0.441-8.93c-0.89-18.03,13.013-33.384,31.05-34.274c18.097-0.893,33.387,13.071,34.274,31.05   l0.6,12.154h95.847l-0.441-8.93c-0.89-18.03,13.014-33.384,31.05-34.274c18.097-0.893,33.387,13.071,34.274,31.05l0.6,12.154   h96.937l-0.441-8.93c-0.89-18.03,13.014-33.384,31.05-34.274c8.433-0.416,16.276,2.401,22.329,7.361l-7.906-22.386   c-2.284-6.468-8.399-10.794-15.259-10.794H107.376c-6.86,0-12.974,4.325-15.259,10.794L81.762,45.422h-5.307   c-7.982,0-14.454,6.471-14.454,14.454S68.473,74.33,76.455,74.33z" data-original="#000000" class="active-path" data-old_color="#000000" fill="#2C7695"/>
	<path d="M499.538,73.515c5.647-1.966,9.706-7.322,9.706-13.639c0-7.982-6.471-14.454-14.454-14.454h-1.412   c3.265,4.801,5.293,10.531,5.6,16.754L499.538,73.515z" data-original="#000000" class="active-path" data-old_color="#000000" fill="#2C7695"/>
	<path d="M348.894,202.8c0.175-0.901-1.657-15.898,11.165-28.907c3.958-4.016,8.781-7.176,14.167-9.17   c-9.275-9.169-15.033-21.887-15.033-35.928c0-13.988,5.713-26.664,14.925-35.825h-36.041c0.43,8.72,2.484,50.335,2.825,57.232   c0.428,8.67-4.449,16.381-11.762,20.001c-6.107,3.013-19.97,9.852-25.862,12.759c5.224,9.837,4.424,19.105,4.507,19.838H348.894z" data-original="#000000" class="active-path" data-old_color="#000000" fill="#2C7695"/>
	<path d="M494.587,173.893L494.587,173.893l0-5.533c-2.17,1.575-0.805,0.748-28.889,14.602c2.872,5.408,4.507,11.57,4.507,18.109   v1.729h24.382c7.982,0,14.454-6.471,14.454-14.454S502.569,173.893,494.587,173.893z" data-original="#000000" class="active-path" data-old_color="#000000" fill="#2C7695"/>
	<path d="M186.473,202.8c0.175-0.901-1.657-15.898,11.165-28.907c3.958-4.016,8.781-7.176,14.167-9.17   c-9.275-9.169-15.033-21.887-15.033-35.928c0-13.988,5.713-26.664,14.925-35.825h-34.951c0.43,8.72,2.484,50.335,2.825,57.232   c0.428,8.67-4.449,16.381-11.762,20.001c-6.083,3.001-19.947,9.84-25.862,12.759c5.224,9.837,4.424,19.105,4.507,19.838H186.473z" data-original="#000000" class="active-path" data-old_color="#000000" fill="#2C7695"/>
	<path d="M85.989,165.171c2.875,0,5.669-0.344,8.351-0.975l19.107-26.947l-1.684-34.122c-6.587-6.614-15.702-10.709-25.775-10.709   c-20.09,0-36.377,16.286-36.377,36.377C49.612,148.885,65.899,165.171,85.989,165.171z" data-original="#000000" class="active-path" data-old_color="#000000" fill="#2C7695"/>
	<path d="M164.695,144.428l-4.024-81.533c-0.494-10-9.001-17.7-19-17.213c-10,0.494-17.706,9-17.213,19l3.585,72.63   c-16.203,13.819-30.247,25.797-46.225,39.424l-17.93-0.239c-13.572,0-24.573,11.002-24.573,24.574V326.9   c-0.517,12.365-1.947,46.524-2.626,62.766L1.594,474.842c-4.431,10.756,0.695,23.066,11.451,27.498   c10.823,4.459,23.095-0.765,27.498-11.451l36.508-88.61c0.936-2.271,1.467-4.689,1.57-7.143c3.144-75.13,2.8-66.319,2.801-67.987   h7.132c7.646,20.846,14.197,38.709,21.869,59.627l-19.425,91.726c-2.41,11.379,4.862,22.559,16.242,24.969   c11.38,2.41,22.559-4.863,24.969-16.242l20.68-97.653c0.82-3.873,0.532-7.899-0.831-11.616   c-2.258-6.156-17.481-47.661-19.774-53.913V201.071c0-4.294-1.104-8.329-3.04-11.842l-14.708,7.256l43.817-37.37   C162.629,155.467,164.972,150.042,164.695,144.428z" data-original="#000000" class="active-path" data-old_color="#000000" fill="#2C7695"/>
	<path d="M247.32,165.171c2.875,0,5.669-0.344,8.352-0.975l19.107-26.947l-1.684-34.122c-6.587-6.614-15.702-10.709-25.775-10.709   c-20.09,0-36.377,16.286-36.377,36.377C210.943,148.885,227.229,165.171,247.32,165.171z" data-original="#000000" class="active-path" data-old_color="#000000" fill="#2C7695"/>
	<path d="M326.025,144.428l-4.024-81.533c-0.493-10-9.021-17.7-19-17.213c-10,0.494-17.707,9-17.213,19l3.585,72.631   c-7.181,6.124-13.938,11.887-20.627,17.592c-6.844,5.837-13.617,11.614-20.701,17.655c-1.511,1.288-3.036,2.589-4.578,3.905   l-18.249,0.033c-13.572,0-24.574,11.002-24.574,24.574v125.836c-0.517,12.349-1.945,46.481-2.627,62.759l-35.093,85.177   c-4.431,10.756,0.695,23.066,11.451,27.498c10.823,4.459,23.095-0.765,27.498-11.451l36.508-88.61   c0.936-2.271,1.467-4.688,1.57-7.143c0.929-22.196,1.864-44.536,2.809-67.106c0.012-0.297-0.008-0.586-0.008-0.881h7.132   c7.646,20.846,14.198,38.709,21.87,59.627l-19.425,91.725c-2.41,11.38,4.862,22.559,16.241,24.969   c11.402,2.414,22.564-4.883,24.969-16.241l20.68-97.653c0.821-3.873,0.532-7.899-0.831-11.616   c-2.143-5.844-17.752-48.4-19.774-53.913V201.071c0-4.294-1.104-8.329-3.04-11.842l-14.708,7.256l43.818-37.371   C323.96,155.467,326.302,150.042,326.025,144.428z" data-original="#000000" class="active-path" data-old_color="#000000" fill="#2C7695"/>
	<path d="M409.74,165.171c2.875,0,5.669-0.344,8.352-0.975l19.107-26.947l-1.684-34.122c-6.587-6.614-15.702-10.709-25.775-10.709   c-20.09,0-36.377,16.286-36.377,36.377C373.364,148.885,389.65,165.171,409.74,165.171z" data-original="#000000" class="active-path" data-old_color="#000000" fill="#2C7695"/>
	<path d="M488.446,144.428l-4.024-81.533c-0.493-10-9.015-17.7-19-17.213c-10,0.494-17.707,9-17.213,19l3.585,72.631   c-16.15,13.774-30.154,25.718-46.067,39.289l-18.088-0.104c-13.572,0-24.573,11.002-24.573,24.574v125.837   c-0.517,12.349-1.945,46.48-2.627,62.757l-35.093,85.177c-4.431,10.756,0.695,23.066,11.451,27.498   c10.823,4.459,23.095-0.765,27.498-11.451l36.508-88.61c0.936-2.271,1.467-4.688,1.57-7.143c3.148-75.214,2.8-66.323,2.801-67.987   h7.132c7.646,20.846,14.198,38.709,21.87,59.627l-19.425,91.725c-2.41,11.38,4.862,22.559,16.241,24.969   c11.402,2.414,22.564-4.883,24.969-16.241l20.68-97.653c0.821-3.873,0.532-7.899-0.831-11.616   c-2.143-5.843-17.752-48.4-19.774-53.913V201.071c0-4.294-1.104-8.329-3.04-11.842l-14.708,7.256l43.817-37.371   C486.38,155.467,488.723,150.042,488.446,144.428z" data-original="#000000" class="active-path" data-old_color="#000000" fill="#2C7695"/>
</g></g> </svg>
