<?xml version="1.0"?>
<svg xmlns="http://www.w3.org/2000/svg" id="Capa_1" enable-background="new 0 0 497 497" height="512px" viewBox="0 0 497 497" width="512px" class=""><g><g><path d="m467 406h-30l30 75h22.5c4.142 0 7.5-3.358 7.5-7.5v-37.5c0-16.5-13.5-30-30-30z" fill="#9a96b0" data-original="#9A96B0" class="" style="fill:#1C1C1C" data-old_color="#9a96b0"/><path d="m361.333 406c-16.5 0-30 13.5-30 30l-30 22.5 30 22.5h30l30-75z" fill="#d0d5e6" data-original="#D0D5E6" class="" style="fill:#C4C7CF" data-old_color="#d0d5e6"/><path d="m467 436c0-16.5-13.5-30-30-30h-45.667c-16.5 0-30 13.5-30 30v45h105.667z" fill="#b5b6cb" data-original="#B5B6CB" class="" style="fill:#374957" data-old_color="#b5b6cb"/><path d="m301.333 406h-30l30 75h30v-45c0-16.5-13.5-30-30-30z" fill="#9a96b0" data-original="#9A96B0" class="" style="fill:#1C1C1C" data-old_color="#9a96b0"/><path d="m195.667 406c-16.5 0-30 13.5-30 30l-30 22.5 30 22.5h30l30-75z" fill="#d0d5e6" data-original="#D0D5E6" class="" style="fill:#C4C7CF" data-old_color="#d0d5e6"/><path d="m301.333 436c0-16.5-13.5-30-30-30h-45.667c-16.5 0-30 13.5-30 30v45h105.667z" fill="#b5b6cb" data-original="#B5B6CB" class="" style="fill:#374957" data-old_color="#b5b6cb"/><path d="m135.667 406h-30l30 75h30v-45c0-16.5-13.5-30-30-30z" fill="#9a96b0" data-original="#9A96B0" class="" style="fill:#1C1C1C" data-old_color="#9a96b0"/><path d="m30 406c-16.5 0-30 13.5-30 30v37.5c0 4.142 3.358 7.5 7.5 7.5h22.5l30-75z" fill="#d0d5e6" data-original="#D0D5E6" class="" style="fill:#C4C7CF" data-old_color="#d0d5e6"/><path d="m135.667 436c0-16.5-13.5-30-30-30h-45.667c-16.5 0-30 13.5-30 30v45h105.667z" fill="#b5b6cb" data-original="#B5B6CB" class="" style="fill:#374957" data-old_color="#b5b6cb"/><path d="m82.504 286v90c24.853 0 45-20.147 45-45s-20.147-45-45-45z" fill="#9a96b0" data-original="#9A96B0" class="" style="fill:#1C1C1C" data-old_color="#9a96b0"/><path d="m97.504 331c0-24.853-6.716-45-15-45-24.853 0-45 20.147-45 45s20.147 45 45 45c8.285 0 15-20.147 15-45z" fill="#b5b6cb" data-original="#B5B6CB" class="" style="fill:#374957" data-old_color="#b5b6cb"/><path d="m413.838 286v90c24.853 0 45-20.147 45-45s-20.148-45-45-45z" fill="#9a96b0" data-original="#9A96B0" class="" style="fill:#1C1C1C" data-old_color="#9a96b0"/><path d="m428.838 331c0-24.853-6.716-45-15-45-24.853 0-45 20.147-45 45s20.147 45 45 45c8.284 0 15-20.147 15-45z" fill="#b5b6cb" data-original="#B5B6CB" class="" style="fill:#374957" data-old_color="#b5b6cb"/><path d="m248.5 286v90c24.853 0 45-20.147 45-45s-20.147-45-45-45z" fill="#9a96b0" data-original="#9A96B0" class="" style="fill:#1C1C1C" data-old_color="#9a96b0"/><path d="m263.5 331c0-24.853-6.716-45-15-45-24.853 0-45 20.147-45 45s20.147 45 45 45c8.284 0 15-20.147 15-45z" fill="#b5b6cb" data-original="#B5B6CB" class="" style="fill:#374957" data-old_color="#b5b6cb"/><path d="m437 16h-30v225h75v-180c0-24.853-20.147-45-45-45z" fill="#a0583b" data-original="#A0583B" class="active-path" data-old_color="#a0583b" style="fill:#84462D"/><path d="m407 16h-347c-24.853 0-45 20.147-45 45v180h437v-180c0-24.853-20.147-45-45-45z" fill="#b36d51" data-original="#B36D51" class=""/><path d="m482 226h-30v30h30c8.284 0 15-6.716 15-15s-6.716-15-15-15z" fill="#7a2f10" data-original="#7A2F10"/><path d="m467 241c0-8.284-6.716-15-15-15h-437c-8.284 0-15 6.716-15 15s6.716 15 15 15h437c8.284 0 15-6.716 15-15z" fill="#8d4426" data-original="#8D4426" class="" style="fill:#8D4426"/><path d="m482 106h-30v30h30c8.284 0 15-6.716 15-15s-6.716-15-15-15z" fill="#7a2f10" data-original="#7A2F10"/><path d="m467 121c0-8.284-6.716-15-15-15h-437c-8.284 0-15 6.716-15 15s6.716 15 15 15h437c8.284 0 15-6.716 15-15z" fill="#8d4426" data-original="#8D4426" class="" style="fill:#8D4426"/><path d="m422 166h30v30h-30l-30-15z" fill="#8d4426" data-original="#8D4426" class="" style="fill:#8D4426"/><path d="m45 166h377v30h-377z" fill="#a0583b" data-original="#A0583B" class="active-path" data-old_color="#a0583b" style="fill:#84462D"/></g></g> </svg>
