<?xml version="1.0"?>
<svg xmlns="http://www.w3.org/2000/svg" height="512px" viewBox="0 0 512 512" width="512px" class=""><g><path d="m256 477.75c-59.230469 0-114.917969-23.066406-156.800781-64.949219-41.882813-41.882812-64.949219-97.570312-64.949219-156.800781s23.066406-114.917969 64.949219-156.800781c41.882812-41.882813 97.570312-64.949219 156.800781-64.949219s114.917969 23.066406 156.800781 64.949219c41.882813 41.882812 64.949219 97.570312 64.949219 156.800781s-23.066406 114.917969-64.949219 156.800781c-41.882812 41.882813-97.570312 64.949219-156.800781 64.949219zm0 0" fill="#ff6477" data-original="#FF6477" class="" style="fill:#2C7695" data-old_color="#ff6477"/><path d="m447.75 256c0 51.21875-19.945312 99.371094-56.164062 135.589844-36.214844 36.214844-84.367188 56.160156-135.585938 56.160156-41.902344 0-81.753906-13.347656-114.691406-38.035156-12.824219-9.609375-30.78125-8.242188-42.109375 3.085937 41.882812 41.882813 97.570312 64.949219 156.800781 64.949219s114.917969-23.066406 156.800781-64.949219c41.882813-41.882812 64.949219-97.570312 64.949219-156.800781s-23.066406-114.917969-64.949219-156.800781c-11.328125 11.328125-12.695312 29.285156-3.085937 42.105469 24.6875 32.941406 38.035156 72.792968 38.035156 114.695312zm0 0" fill="#e93d52" data-original="#E93D52" class="" style="fill:#2C7695" data-old_color="#e93d52"/><path d="m437.019531 74.980469c-48.351562-48.351563-112.640625-74.980469-181.019531-74.980469-4.140625 0-7.5 3.359375-7.5 7.5s3.359375 7.5 7.5 7.5c64.375 0 124.894531 25.066406 170.414062 70.585938 45.519532 45.519531 70.585938 106.039062 70.585938 170.414062s-25.066406 124.894531-70.585938 170.414062c-45.519531 45.519532-106.039062 70.585938-170.414062 70.585938s-124.894531-25.066406-170.414062-70.585938c-45.519532-45.519531-70.585938-106.039062-70.585938-170.414062 0-58.054688 20.394531-112.96875 57.785156-156.578125v.863281c0 4.140625 3.355469 7.5 7.5 7.5 4.140625 0 7.5-3.359375 7.5-7.5v-20c0-4.179687-3.417968-7.503906-7.503906-7.5h-19.996094c-4.144531 0-7.5 3.355469-7.5 7.5 0 4.140625 3.355469 7.5 7.5 7.5h2.742188c-40.761719 46.621094-63.027344 105.703125-63.027344 168.214844 0 68.378906 26.628906 132.667969 74.980469 181.019531 48.351562 48.351563 112.640625 74.980469 181.019531 74.980469s132.667969-26.628906 181.019531-74.980469c48.351563-48.351562 74.980469-112.640625 74.980469-181.019531s-26.628906-132.667969-74.980469-181.019531zm0 0" fill="#e93d52" data-original="#E93D52" class="" style="fill:#2C7695" data-old_color="#e93d52"/><path d="m425.25 256c0 93.472656-75.777344 169.25-169.25 169.25s-169.25-75.777344-169.25-169.25 75.777344-169.25 169.25-169.25 169.25 75.777344 169.25 169.25zm0 0" fill="#fff9eb" data-original="#FFF9EB" class="" style="fill:#FFFFFF" data-old_color="#fff9eb"/><path d="m375.621094 136.378906c-11.261719 11.261719-12.792969 28.875-3.910156 42.097656 15.261718 22.714844 23.460937 49.472657 23.460937 77.523438 0 37.246094-14.457031 72.214844-40.707031 98.464844s-61.21875 40.707031-98.464844 40.707031c-28.050781 0-54.808594-8.199219-77.523438-23.460937-13.222656-8.882813-30.832031-7.355469-42.097656 3.910156 31.164063 31.164062 74.386719 50.265625 121.984375 49.613281 91.289063-1.25 165.621094-75.582031 166.871094-166.871094.652344-47.597656-18.449219-90.820312-49.613281-121.984375zm0 0" fill="#d3cdbf" data-original="#D3CDBF" class="active-path" style="fill:#FFFFFF" data-old_color="#d3cdbf"/><path d="m346.457031 263.25h-72.207031c-4.140625 0-7.5-3.359375-7.5-7.5s3.359375-7.5 7.5-7.5h72.207031c4.144531 0 7.5 3.359375 7.5 7.5s-3.355469 7.5-7.5 7.5zm0 0" fill="#3e4954" data-original="#3E4954" class="" style="fill:#2C7695" data-old_color="#3e4954"/><path d="m256.25 244.238281c-4.140625 0-7.5-3.355469-7.5-7.5v-36.738281c0-4.140625 3.359375-7.5 7.5-7.5s7.5 3.359375 7.5 7.5v36.738281c0 4.144531-3.359375 7.5-7.5 7.5zm0 0" fill="#3e4954" data-original="#3E4954" class="" style="fill:#2C7695" data-old_color="#3e4954"/><path d="m276 256c0 11.046875-8.953125 20-20 20s-20-8.953125-20-20 8.953125-20 20-20 20 8.953125 20 20zm0 0" fill="#e93d52" data-original="#E93D52" class="" style="fill:#2C7695" data-old_color="#e93d52"/><g fill="#3e4954"><path d="m256 101.5c-4.140625 0-7.5 3.355469-7.5 7.5v26.8125c0 4.140625 3.359375 7.5 7.5 7.5s7.5-3.359375 7.5-7.5v-26.8125c0-4.144531-3.359375-7.5-7.5-7.5zm0 0" data-original="#3E4954" class="" style="fill:#2C7695" data-old_color="#3E4954"/><path d="m256 368.6875c-4.140625 0-7.5 3.359375-7.5 7.5v26.8125c0 4.144531 3.359375 7.5 7.5 7.5s7.5-3.355469 7.5-7.5v-26.8125c0-4.140625-3.359375-7.5-7.5-7.5zm0 0" data-original="#3E4954" class="" style="fill:#2C7695" data-old_color="#3E4954"/><path d="m403 248.5h-26.8125c-4.140625 0-7.5 3.355469-7.5 7.5s3.359375 7.5 7.5 7.5h26.8125c4.140625 0 7.5-3.355469 7.5-7.5s-3.359375-7.5-7.5-7.5zm0 0" data-original="#3E4954" class="" style="fill:#2C7695" data-old_color="#3E4954"/><path d="m143.3125 256c0-4.144531-3.359375-7.5-7.5-7.5h-26.8125c-4.140625 0-7.5 3.355469-7.5 7.5s3.359375 7.5 7.5 7.5h26.8125c4.140625 0 7.5-3.355469 7.5-7.5zm0 0" data-original="#3E4954" class="" style="fill:#2C7695" data-old_color="#3E4954"/><path d="m143.898438 313.214844c-1.269532 0-2.5625.324218-3.742188 1.007812l-15.210938 8.78125c-3.585937 2.070313-4.816406 6.660156-2.746093 10.246094 2.070312 3.589844 6.660156 4.816406 10.246093 2.746094l15.210938-8.785156c3.585938-2.070313 4.816406-6.65625 2.746094-10.242188-1.390625-2.40625-3.910156-3.753906-6.503906-3.753906zm0 0" data-original="#3E4954" class="" style="fill:#2C7695" data-old_color="#3E4954"/><path d="m195.03125 361.597656c-1.179688-.683594-2.46875-1.003906-3.742188-1.003906-2.589843 0-5.113281 1.34375-6.5 3.75l-8.785156 15.210938c-2.070312 3.589843-.839844 8.175781 2.746094 10.246093 3.589844 2.070313 8.175781.84375 10.246094-2.746093l8.78125-15.210938c2.074218-3.585938.84375-8.171875-2.746094-10.246094zm0 0" data-original="#3E4954" class="" style="fill:#2C7695" data-old_color="#3E4954"/><path d="m188.996094 124.945312c-2.070313-3.589843-6.660156-4.816406-10.246094-2.746093-3.585938 2.070312-4.816406 6.65625-2.746094 10.246093l8.785156 15.210938c1.386719 2.40625 3.910157 3.75 6.5 3.75 1.273438 0 2.5625-.320312 3.742188-1.003906 3.589844-2.074219 4.816406-6.660156 2.746094-10.246094zm0 0" data-original="#3E4954" class="" style="fill:#2C7695" data-old_color="#3E4954"/><path d="m327.210938 364.34375c-2.070313-3.585938-6.660157-4.8125-10.242188-2.746094-3.589844 2.074219-4.816406 6.660156-2.746094 10.246094l8.78125 15.210938c1.390625 2.40625 3.910156 3.753906 6.503906 3.753906 1.269532 0 2.5625-.324219 3.742188-1.007813 3.585938-2.070312 4.816406-6.65625 2.746094-10.246093zm0 0" data-original="#3E4954" class="" style="fill:#2C7695" data-old_color="#3E4954"/><path d="m368.101562 198.785156c1.269532 0 2.5625-.324218 3.742188-1.007812l15.210938-8.78125c3.585937-2.070313 4.816406-6.660156 2.746093-10.246094-2.070312-3.589844-6.660156-4.816406-10.246093-2.746094l-15.210938 8.785156c-3.585938 2.070313-4.816406 6.65625-2.746094 10.242188 1.390625 2.40625 3.910156 3.753906 6.503906 3.753906zm0 0" data-original="#3E4954" class="" style="fill:#2C7695" data-old_color="#3E4954"/><path d="m147.65625 184.789062-15.210938-8.785156c-3.585937-2.070312-8.175781-.84375-10.246093 2.746094-2.070313 3.585938-.839844 8.175781 2.746093 10.246094l15.210938 8.78125c1.183594.683594 2.472656 1.007812 3.742188 1.007812 2.59375 0 5.113281-1.347656 6.503906-3.753906 2.070312-3.585938.839844-8.171875-2.746094-10.242188zm0 0" data-original="#3E4954" class="" style="fill:#2C7695" data-old_color="#3E4954"/><path d="m387.054688 323.003906-15.210938-8.78125c-3.585938-2.070312-8.171875-.84375-10.246094 2.746094-2.070312 3.585938-.839844 8.171875 2.746094 10.242188l15.210938 8.785156c1.183593.683594 2.472656 1.007812 3.746093 1.007812 2.589844 0 5.109375-1.347656 6.5-3.753906 2.070313-3.585938.84375-8.175781-2.746093-10.246094zm0 0" data-original="#3E4954" class="" style="fill:#2C7695" data-old_color="#3E4954"/><path d="m333.25 122.199219c-3.589844-2.070313-8.175781-.84375-10.246094 2.746093l-8.78125 15.210938c-2.070312 3.585938-.84375 8.171875 2.746094 10.246094 1.179688.683594 2.46875 1.003906 3.742188 1.003906 2.589843 0 5.113281-1.34375 6.5-3.75l8.785156-15.210938c2.070312-3.589843.839844-8.175781-2.746094-10.246093zm0 0" data-original="#3E4954" class="" style="fill:#2C7695" data-old_color="#3E4954"/></g></g> </svg>
