<?xml version="1.0"?>
<svg xmlns="http://www.w3.org/2000/svg" id="Capa_1" enable-background="new 0 0 512 512" height="512px" viewBox="0 0 512 512" width="512px" class=""><g><g><g><path clip-rule="evenodd" d="m271.245 218.182v38.01l38.394 12.427 38.424-12.427 14.733-21.581-14.733-21.581h-71.667c-2.845.001-5.151 2.307-5.151 5.152z" fill="#be8282" fill-rule="evenodd" data-original="#BE8282" class="" style="fill:#FFFFFF" data-old_color="#be8282"/></g><g><path clip-rule="evenodd" d="m271.245 256.192v40.468l38.409 9.39 38.409-9.39 14.732-21.96-14.732-18.508z" fill="#b3e59f" fill-rule="evenodd" data-original="#B3E59F" class="" style="fill:#1273EB" data-old_color="#b3e59f"/></g><g><path clip-rule="evenodd" d="m92.951 232.362c-13.883 0-25.221 11.368-25.221 25.222v39.076l25.221 16.258 25.221-16.258 10.168-21.96-10.168-17.116c0-13.854-11.338-25.222-25.221-25.222z" fill="#eceaec" fill-rule="evenodd" data-original="#ECEAEC" class=""/></g><g><path clip-rule="evenodd" d="m118.172 257.584v39.076l25.221 20.378 25.221-20.378v-39.076c0-13.854-11.338-25.222-25.221-25.222-13.854 0-25.221 11.368-25.221 25.222z" fill="#dad8db" fill-rule="evenodd" data-original="#DAD8DB" class=""/></g><g><path d="m355.789 504.858c-4.268 0-7.726-3.459-7.726-7.726v-25.607c0-4.268 3.459-7.726 7.726-7.726 4.268 0 7.726 3.459 7.726 7.726v25.607c.001 4.267-3.458 7.726-7.726 7.726z" fill="#6f6571" data-original="#6F6571" class=""/></g><g><path d="m504.274 504.858c-4.268 0-7.726-3.459-7.726-7.726v-25.607c0-4.268 3.459-7.726 7.726-7.726s7.726 3.459 7.726 7.726v25.607c0 4.267-3.459 7.726-7.726 7.726z" fill="#6f6571" data-original="#6F6571" class=""/></g><g><path d="m23.949 334.384c-4.268 0-7.726-4.513-7.726-10.081v-236.723c0-5.568 3.459-10.081 7.726-10.081s7.726 4.513 7.726 10.081v236.723c0 5.568-3.459 10.081-7.726 10.081z" fill="#b6b1b7" data-original="#B6B1B7" class=""/></g><g><path d="m403.892 225.272c-4.268 0-7.726-4.513-7.726-10.081v-127.611c0-5.568 3.459-10.081 7.726-10.081s7.726 4.513 7.726 10.081v127.611c.001 5.568-3.458 10.081-7.726 10.081z" fill="#b6b1b7" data-original="#B6B1B7" class=""/></g><g><path clip-rule="evenodd" d="m0 304.83v132.77c0 4.47 3.671 8.141 8.141 8.141h339.922l42.891-74.54-42.891-74.54h-339.922c-4.47-.001-8.141 3.67-8.141 8.169z" fill="#ffe07d" fill-rule="evenodd" data-original="#FFE07D" class=""/></g><g><path clip-rule="evenodd" d="m42.775 370.134c0 15.068 12.315 27.383 27.352 27.383h277.935v-54.736h-277.934c-15.038 0-27.353 12.315-27.353 27.353z" fill="#be8282" fill-rule="evenodd" data-original="#BE8282" class="" style="fill:#FFFFFF" data-old_color="#be8282"/></g><g><path clip-rule="evenodd" d="m348.063 213.031v43.161 40.467 46.122 54.736 39.106h79.778 84.159v-220.987c0-1.421-1.184-2.605-2.605-2.605h-105.502zm81.968 38.928c23.771 0 43.042 19.272 43.042 43.043s-19.271 43.043-43.042 43.043c-.74 0-1.451-.03-2.191-.059-22.202-1.095-39.993-19.035-40.821-41.326-.03-.562-.03-1.095-.03-1.658 0-13.943 6.631-26.347 16.903-34.221 7.253-5.536 16.312-8.822 26.139-8.822z" fill="#eceaec" fill-rule="evenodd" data-original="#ECEAEC" class=""/></g><g><path clip-rule="evenodd" d="m387.019 296.66c.829 22.291 18.62 40.23 40.821 41.326.74.03 1.451.059 2.191.059 23.771 0 43.042-19.272 43.042-43.043s-19.271-43.043-43.042-43.043c-9.828 0-18.886 3.286-26.139 8.822-10.272 7.874-16.903 20.278-16.903 34.221.001.562.001 1.095.03 1.658z" fill="#b3e59f" fill-rule="evenodd" data-original="#B3E59F" class="" style="fill:#1273EB" data-old_color="#b3e59f"/></g><g><path clip-rule="evenodd" d="m348.063 445.741v25.784h163.937v-34.902h-84.159-79.778z" fill="#b3e59f" fill-rule="evenodd" data-original="#B3E59F" class="" style="fill:#1273EB" data-old_color="#b3e59f"/></g><g><path clip-rule="evenodd" d="m0 76.828c0 16.785 9.769 31.409 23.948 38.395 5.684 2.812 12.078 4.411 18.827 4.411 23.534 0 42.775-19.272 42.775-42.806v-27.117l-40.222-16.301-45.328 16.301z" fill="#b3e59f" fill-rule="evenodd" data-original="#B3E59F" class="" style="fill:#1273EB" data-old_color="#b3e59f"/></g><g><path clip-rule="evenodd" d="m85.55 76.828c0 23.534 19.271 42.806 42.805 42.806s42.775-19.272 42.775-42.806v-27.117l-42.79-16.301-42.79 16.301-13.437 12.357z" fill="#ff8086" fill-rule="evenodd" data-original="#FF8086" class=""/></g><g><path clip-rule="evenodd" d="m171.13 76.828c0 23.534 19.271 42.806 42.775 42.806 23.534 0 42.805-19.272 42.805-42.806v-27.117l-42.79-10.822-42.79 10.822-11.967 13.902z" fill="#b3e59f" fill-rule="evenodd" data-original="#B3E59F" class="" style="fill:#1273EB" data-old_color="#b3e59f"/></g><g><path clip-rule="evenodd" d="m256.71 76.828c0 23.534 19.241 42.806 42.775 42.806s42.805-19.272 42.805-42.806v-27.117l-48.173-16.301-37.407 16.301-13.073 12.872z" fill="#ff8086" fill-rule="evenodd" data-original="#FF8086" class=""/></g><g><path clip-rule="evenodd" d="m342.29 76.828c0 23.534 19.241 42.806 42.775 42.806 6.749 0 13.143-1.599 18.827-4.411 14.15-6.986 23.948-21.61 23.948-38.395v-27.117l-41.502-10.822-44.048 10.822-7.997 14.675z" fill="#b3e59f" fill-rule="evenodd" data-original="#B3E59F" class="" style="fill:#1273EB" data-old_color="#b3e59f"/></g><g><path clip-rule="evenodd" d="m171.13 49.711h85.58 85.58 85.55v-15.867-16.637c0-5.536-4.529-10.065-10.065-10.065h-407.71c-5.536 0-10.065 4.529-10.065 10.065v16.637 15.867h85.55z" fill="#ffe07d" fill-rule="evenodd" data-original="#FFE07D" class=""/></g><g><path clip-rule="evenodd" d="m396.403 17.207v32.504h31.438v-15.867-16.637c0-5.536-4.529-10.065-10.065-10.065h-31.438c5.536 0 10.065 4.529 10.065 10.065z" fill="#ffc269" fill-rule="evenodd" data-original="#FFC269" class=""/></g><g><path clip-rule="evenodd" d="m396.403 76.828c0 17.999-11.249 33.481-27.056 39.786 4.855 1.954 10.183 3.02 15.719 3.02 6.749 0 13.143-1.599 18.827-4.411 14.15-6.986 23.948-21.61 23.948-38.395v-27.117h-31.438z" fill="#95d6a4" fill-rule="evenodd" data-original="#95D6A4" class="" style="fill:#04458F" data-old_color="#95d6a4"/></g><g><path clip-rule="evenodd" d="m310.823 76.828c0 17.999-11.249 33.481-27.056 39.786 4.884 1.954 10.183 3.02 15.719 3.02 6.749 0 13.143-1.599 18.857-4.411 14.15-6.986 23.948-21.61 23.948-38.395v-27.117h-31.467v27.117z" fill="#f76672" fill-rule="evenodd" data-original="#F76672" class=""/></g><g><path clip-rule="evenodd" d="m225.243 76.828c0 17.999-11.249 33.481-27.056 39.786 4.884 1.954 10.183 3.02 15.719 3.02 6.779 0 13.173-1.599 18.857-4.411 14.15-6.986 23.948-21.61 23.948-38.395v-27.117h-31.467v27.117z" fill="#95d6a4" fill-rule="evenodd" data-original="#95D6A4" class="" style="fill:#04458F" data-old_color="#95d6a4"/></g><g><path clip-rule="evenodd" d="m139.693 76.828c0 17.999-11.249 33.481-27.056 39.786 4.855 1.954 10.154 3.02 15.719 3.02 6.749 0 13.143-1.599 18.827-4.411 14.15-6.986 23.948-21.61 23.948-38.395v-27.117h-31.438z" fill="#f76672" fill-rule="evenodd" data-original="#F76672" class=""/></g><g><path clip-rule="evenodd" d="m54.113 76.828c0 17.999-11.249 33.481-27.056 39.786 4.855 1.954 10.183 3.02 15.719 3.02 6.749 0 13.143-1.599 18.857-4.411 14.15-6.986 23.919-21.61 23.919-38.395v-27.117h-31.439z" fill="#95d6a4" fill-rule="evenodd" data-original="#95D6A4" class="" style="fill:#04458F" data-old_color="#95d6a4"/></g><g><path clip-rule="evenodd" d="m309.639 213.031h38.424v43.161h-38.424z" fill="#af7373" fill-rule="evenodd" data-original="#AF7373" class="active-path" style="fill:#E3E9ED" data-old_color="#af7373"/></g><g><path clip-rule="evenodd" d="m309.639 256.192h38.424v40.467h-38.424z" fill="#95d6a4" fill-rule="evenodd" data-original="#95D6A4" class="" style="fill:#04458F" data-old_color="#95d6a4"/></g><g><path clip-rule="evenodd" d="m309.639 296.66h38.424v46.122h-38.424z" fill="#ffc269" fill-rule="evenodd" data-original="#FFC269" class=""/></g><g><path clip-rule="evenodd" d="m309.639 397.517v48.224h38.424v-9.118-39.106z" fill="#ffc269" fill-rule="evenodd" data-original="#FFC269" class=""/></g><g><path clip-rule="evenodd" d="m446.342 293.729c0 19.834-13.38 36.501-31.615 41.533 4.115 1.539 8.525 2.487 13.114 2.723.74.03 1.451.059 2.191.059 23.771 0 43.042-19.272 43.042-43.043s-19.271-43.043-43.042-43.043c-3.967 0-7.815.533-11.456 1.539 16.221 6.159 27.766 21.849 27.766 40.232z" fill="#95d6a4" fill-rule="evenodd" data-original="#95D6A4" class="" style="fill:#04458F" data-old_color="#95d6a4"/></g><g><path clip-rule="evenodd" d="m486.305 215.636v220.987h25.695v-220.987c0-1.421-1.184-2.605-2.605-2.605h-25.695c1.451 0 2.605 1.184 2.605 2.605z" fill="#dad8db" fill-rule="evenodd" data-original="#DAD8DB" class=""/></g><g><path clip-rule="evenodd" d="m486.305 436.623h25.695v34.902h-25.695z" fill="#95d6a4" fill-rule="evenodd" data-original="#95D6A4" class="" style="fill:#04458F" data-old_color="#95d6a4"/></g><g><path clip-rule="evenodd" d="m309.639 342.781h38.424v54.736h-38.424z" fill="#af7373" fill-rule="evenodd" data-original="#AF7373" class="active-path" style="fill:#E3E9ED" data-old_color="#af7373"/></g><g><path d="m455.934 378.748h-51.834c-4.268 0-7.726-3.459-7.726-7.726s3.459-7.726 7.726-7.726h51.834c4.268 0 7.726 3.459 7.726 7.726s-3.459 7.726-7.726 7.726z" fill="#6f6571" data-original="#6F6571" class=""/></g><g><path d="m455.934 409.713h-51.834c-4.268 0-7.726-3.459-7.726-7.726s3.459-7.726 7.726-7.726h51.834c4.268 0 7.726 3.459 7.726 7.726s-3.459 7.726-7.726 7.726z" fill="#6f6571" data-original="#6F6571" class=""/></g></g></g> </svg>
