<svg id="museum" enable-background="new 0 0 300 300" height="512" viewBox="0 0 300 300" width="512" xmlns="http://www.w3.org/2000/svg"><circle cx="112" cy="112" fill="#e5efef" r="86"/><path d="m90 54h115.803v140h-115.803z" fill="#edebdc"/><path d="m205.803 198h-115.803c-2.209 0-4-1.791-4-4v-140c0-2.209 1.791-4 4-4h115.803c2.209 0 4 1.791 4 4v140c0 2.209-1.791 4-4 4zm-111.803-8h107.803v-132h-107.803z" fill="#4c241d"/><path d="m128.38 268h-39.291l9.428-15.327h20.435z" fill="#6b4f5b"/><path d="m128.38 272h-39.291c-1.449 0-2.785-.783-3.491-2.049-.707-1.265-.675-2.812.084-4.047l9.428-15.326c.729-1.184 2.018-1.904 3.407-1.904h20.436c1.39 0 2.679.721 3.407 1.904l9.428 15.326c.759 1.234.791 2.782.084 4.047-.707 1.266-2.043 2.049-3.492 2.049zm-32.134-8h24.977l-4.506-7.326h-15.965z" fill="#4c241d"/><path d="m57.646 256.674c-2.209 0-4-1.791-4-4v-71.524c0-2.209 1.791-4 4-4s4 1.791 4 4v71.524c0 2.209-1.792 4-4 4z" fill="#4c241d"/><path d="m67.864 252.673h-20.436l-9.428 15.327h39.292z" fill="#6b4f5b"/><path d="m77.292 272h-39.292c-1.449 0-2.785-.783-3.491-2.049-.707-1.265-.675-2.812.084-4.047l9.429-15.326c.729-1.184 2.018-1.904 3.407-1.904h20.435c1.39 0 2.679.721 3.407 1.904l9.429 15.326c.759 1.234.791 2.782.084 4.047-.707 1.266-2.043 2.049-3.492 2.049zm-32.135-8h24.978l-4.507-7.326h-15.964z" fill="#4c241d"/><path d="m83.92 215.391c-16.4 0-28.527-13.353-29.038-13.924-1.472-1.646-1.33-4.176.316-5.648 1.643-1.469 4.168-1.331 5.643.311.119.132 10.318 11.262 23.081 11.262h.201c7.309-.067 14.265-3.84 20.675-11.214 1.449-1.668 3.976-1.844 5.643-.395 1.668 1.449 1.844 3.976.395 5.643-7.997 9.199-16.981 13.897-26.705 13.966-.07-.001-.142-.001-.211-.001z" fill="#4c241d"/><path d="m194 257.782h76v12.218h-76z" fill="#fff"/><path d="m270 274h-76c-2.209 0-4-1.791-4-4v-12.218c0-2.209 1.791-4 4-4h76c2.209 0 4 1.791 4 4v12.218c0 2.209-1.791 4-4 4zm-72-8h68v-4.218h-68z" fill="#4c241d"/><path d="m206 218h52v39.782h-52z" fill="#fff"/><path d="m258 261.782h-52c-2.209 0-4-1.791-4-4v-39.782c0-2.209 1.791-4 4-4h52c2.209 0 4 1.791 4 4v39.782c0 2.209-1.791 4-4 4zm-48-8h44v-31.782h-44z" fill="#4c241d"/><path d="m232.961 216.911-19.158-20.435 19.158-25.544 19.158 25.544z" fill="#ffce56"/><path d="m232.961 220.911c-1.105 0-2.162-.458-2.918-1.265l-19.158-20.436c-1.328-1.416-1.447-3.582-.282-5.136l19.158-25.544c.756-1.007 1.941-1.6 3.2-1.6s2.444.593 3.2 1.6l19.158 25.544c1.165 1.554 1.046 3.72-.282 5.136l-19.158 20.436c-.756.807-1.813 1.265-2.918 1.265zm-13.943-24.722 13.943 14.873 13.943-14.873-13.943-18.591z" fill="#4c241d"/><path d="m232.961 176.041-19.158-20.436 19.158-25.544 19.158 25.544z" fill="#ffce56"/><path d="m232.961 180.041c-1.105 0-2.162-.458-2.918-1.265l-19.158-20.436c-1.328-1.416-1.447-3.582-.282-5.136l19.158-25.545c.756-1.007 1.941-1.6 3.2-1.6s2.444.593 3.2 1.6l19.158 25.545c1.165 1.554 1.046 3.72-.282 5.136l-19.158 20.436c-.756.807-1.813 1.265-2.918 1.265zm-13.943-24.722 13.943 14.873 13.943-14.873-13.943-18.592z" fill="#4c241d"/><path d="m232.961 135.17-19.158-20.436 19.158-25.544 19.158 25.544z" fill="#ffce56"/><path d="m232.961 139.17c-1.105 0-2.162-.458-2.918-1.265l-19.158-20.436c-1.328-1.416-1.447-3.582-.282-5.136l19.158-25.545c.756-1.007 1.941-1.6 3.2-1.6s2.444.593 3.2 1.6l19.158 25.545c1.165 1.554 1.046 3.72-.282 5.136l-19.158 20.436c-.756.807-1.813 1.265-2.918 1.265zm-13.943-24.722 13.943 14.873 13.943-14.873-13.943-18.592z" fill="#4c241d"/><path d="m127.294 144.359v-52.382c0-10.004 8.11-18.113 18.113-18.113h3.64c11.38 0 21.269 7.688 24.147 18.698 2.616 10.01 5.316 25.256 7.21 48.387z" fill="#bf7e68"/><path d="m127.294 148.359c-1.014 0-1.992-.385-2.736-1.082-.807-.757-1.264-1.812-1.264-2.918v-52.382c0-12.193 9.92-22.113 22.113-22.113h3.641c13.158 0 24.679 8.917 28.017 21.686 3.197 12.236 5.662 28.746 7.326 49.073.088 1.069-.258 2.129-.959 2.941-.702.812-1.7 1.308-2.771 1.377l-53.11 3.411c-.086.004-.172.007-.257.007zm18.113-70.496c-7.782 0-14.113 6.331-14.113 14.113v48.117l44.776-2.875c-1.611-18.004-3.878-32.672-6.746-43.646-2.418-9.249-10.756-15.709-20.276-15.709z" fill="#4c241d"/><path d="m188.711 147.201c-5.814-7.068-13.534-12.031-23.779-12.031v-30.653l-20.435 15.327v15.327s-15.057 4.32-26.162 16.606c6.866 2.092 20.347 6.765 31.271 14.047-.001-.001 4.541-9.044 39.105-18.623z" fill="#ffe8dc"/><path d="m149.792 169.972c-.842 0-1.668-.329-2.405-.82-10.441-6.96-23.414-11.477-30.218-13.55-1.31-.398-2.324-1.439-2.689-2.759s-.03-2.734.888-3.75c8.864-9.806 19.95-14.827 25.129-16.779v-12.471c0-1.259.593-2.444 1.6-3.2l20.436-15.326c1.213-.909 2.834-1.054 4.189-.378 1.354.678 2.211 2.063 2.211 3.578v26.882c8.783 1.023 16.461 5.472 22.868 13.262.86 1.046 1.133 2.455.726 3.746-.408 1.291-1.441 2.288-2.746 2.649-29.446 8.16-35.954 15.763-36.639 16.663-.441 1.081-1.269 1.742-2.395 2.104-.318.102-.638.149-.955.149zm-23.924-19.931c6.624 2.334 15.194 5.848 22.991 10.571 3.885-3.586 12.697-9.345 32.354-15.39-4.79-4.064-10.161-6.053-16.282-6.053-2.209 0-4-1.791-4-4v-22.653l-12.436 9.326v13.327c0 1.784-1.182 3.353-2.896 3.845-.115.034-10.399 3.093-19.731 11.027z" fill="#4c241d"/><path d="m188.711 147.201c-34.565 9.277-39.106 18.036-39.106 18.036-10.923-7.053-24.405-11.579-31.271-13.605-8.483 9.091-14.661 22.68-10.044 42.368h97.512c.001 0-2.609-29.749-17.091-46.799z" fill="#9dc1e4"/><path d="m205.803 198h-97.512c-1.857 0-3.471-1.278-3.895-3.087-4.194-17.884-.386-33.794 11.014-46.011 1.034-1.107 2.604-1.536 4.057-1.106 6.614 1.951 18.745 6.026 29.407 12.295 4.282-3.838 14.561-10.247 38.8-16.753 1.494-.398 3.084.095 4.086 1.273 15.132 17.817 17.917 47.772 18.027 49.039.099 1.117-.277 2.225-1.035 3.052s-1.827 1.298-2.949 1.298zm-94.258-8h89.71c-1.247-8.17-4.886-26.076-14.025-38.245-27.204 7.609-33.421 14.555-34.115 15.43-.443 1.06-1.253 1.696-2.361 2.058-1.144.37-2.306.009-3.317-.645-9.306-6.009-20.631-10.141-27.805-12.391-7.736 9.291-10.451 20.637-8.087 33.793z" fill="#4c241d"/><ellipse cx="147.051" cy="101.962" fill="#ffe8dc" rx="17.881" ry="22.99"/><path d="m147.051 128.952c-12.065 0-21.881-12.107-21.881-26.99 0-14.882 9.815-26.989 21.881-26.989s21.881 12.107 21.881 26.989c0 14.883-9.816 26.99-21.881 26.99zm0-45.979c-7.654 0-13.881 8.519-13.881 18.989 0 10.472 6.227 18.99 13.881 18.99s13.881-8.519 13.881-18.99-6.227-18.989-13.881-18.989z" fill="#4c241d"/><path d="m110 258c-2.209 0-4-1.791-4-4v-72c0-2.209 1.791-4 4-4s4 1.791 4 4v72c0 2.209-1.791 4-4 4z" fill="#4c241d"/><circle cx="109.944" cy="177.249" fill="#f53e28" r="8.057"/><path d="m109.943 189.307c-6.648 0-12.057-5.409-12.057-12.058s5.408-12.057 12.057-12.057 12.057 5.409 12.057 12.057-5.408 12.058-12.057 12.058zm0-16.115c-2.237 0-4.057 1.819-4.057 4.057s1.819 4.058 4.057 4.058 4.057-1.82 4.057-4.058-1.819-4.057-4.057-4.057z" fill="#4c241d"/><circle cx="57.944" cy="177.249" fill="#f53e28" r="8.057"/><g fill="#4c241d"><path d="m57.943 189.307c-6.648 0-12.057-5.409-12.057-12.058s5.408-12.057 12.057-12.057 12.057 5.409 12.057 12.057-5.408 12.058-12.057 12.058zm0-16.115c-2.237 0-4.057 1.819-4.057 4.057s1.819 4.058 4.057 4.058 4.057-1.821 4.057-4.058-1.819-4.057-4.057-4.057z"/><path d="m50 54c-2.209 0-4-1.791-4-4v-12c0-2.209 1.791-4 4-4s4 1.791 4 4v12c0 2.209-1.791 4-4 4z"/><path d="m50 82c-2.209 0-4-1.791-4-4v-12c0-2.209 1.791-4 4-4s4 1.791 4 4v12c0 2.209-1.791 4-4 4z"/><path d="m42 62h-12c-2.209 0-4-1.791-4-4s1.791-4 4-4h12c2.209 0 4 1.791 4 4s-1.791 4-4 4z"/><path d="m70 62h-12c-2.209 0-4-1.791-4-4s1.791-4 4-4h12c2.209 0 4 1.791 4 4s-1.791 4-4 4z"/><path d="m248 66c-7.72 0-14-6.28-14-14s6.28-14 14-14 14 6.28 14 14-6.28 14-14 14zm0-20c-3.309 0-6 2.691-6 6s2.691 6 6 6 6-2.691 6-6-2.691-6-6-6z"/><circle cx="86" cy="34" r="4"/><circle cx="198" cy="34" r="4"/><circle cx="262" cy="90" r="4"/><circle cx="54" cy="106" r="4"/></g></svg>