<?xml version="1.0"?>
<svg xmlns="http://www.w3.org/2000/svg" xmlns:xlink="http://www.w3.org/1999/xlink" version="1.1" id="Capa_1" x="0px" y="0px" viewBox="0 0 512 512" style="enable-background:new 0 0 512 512;" xml:space="preserve" width="512px" height="512px"><g><g>
	<g>
		<rect x="271.04" y="232.71" width="63.86" height="279.29" data-original="#000000" class="active-path" data-old_color="#000000" fill="#2C7695"/>
	</g>
</g><g>
	<g>
		<path d="M84.618,232.713v264.243c0,8.308,6.735,15.044,15.044,15.044h47.347V232.713H84.618z" data-original="#000000" class="active-path" data-old_color="#000000" fill="#2C7695"/>
	</g>
</g><g>
	<g>
		<path d="M364.991,232.713V512h47.347c8.308,0,15.044-6.735,15.044-15.044V232.713H364.991z" data-original="#000000" class="active-path" data-old_color="#000000" fill="#2C7695"/>
	</g>
</g><g>
	<g>
		<rect x="177.1" y="232.71" width="63.86" height="279.29" data-original="#000000" class="active-path" data-old_color="#000000" fill="#2C7695"/>
	</g>
</g><g>
	<g>
		<path d="M438.413,156.691c-3.71,0.531-7.477,0.796-11.268,0.796c-3.391,0-6.801-0.212-10.212-0.637    c-6.857-0.853-13.661-2.652-20.222-5.348c-6.219-2.555-12.147-5.986-17.619-10.2c-5.179-3.987-9.862-8.725-13.917-14.081    c-0.347-0.459-0.685-0.931-1.023-1.403H147.848c-0.338,0.472-0.676,0.944-1.023,1.403c-4.055,5.356-8.738,10.094-13.917,14.082    c-5.472,4.213-11.4,7.644-17.619,10.199c-6.561,2.695-13.365,4.495-20.222,5.348c-7.226,0.899-14.452,0.845-21.478-0.159    c-3.423-0.489-6.787-1.19-10.081-2.077v32.967c0,8.295,6.749,15.044,15.044,15.044H433.45c8.295,0,15.044-6.749,15.044-15.044    v-32.967C445.2,155.502,441.835,156.202,438.413,156.691z" data-original="#000000" class="active-path" data-old_color="#000000" fill="#2C7695"/>
	</g>
</g><g>
	<g>
		<path d="M481.856,58.058c-0.954-5.867-2.644-11.501-5.023-16.748c-2.533-5.587-5.738-10.747-9.525-15.335    c-4.026-4.878-8.607-9.152-13.615-12.702C448.377,9.505,442.67,6.486,436.73,4.3c-6.089-2.24-12.357-3.686-18.638-4.3H93.908    C87.627,0.614,81.359,2.06,75.27,4.3c-5.94,2.186-11.647,5.205-16.963,8.972c-5.008,3.55-9.59,7.824-13.615,12.702    c-3.787,4.589-6.992,9.748-9.525,15.335c-2.379,5.246-4.069,10.881-5.023,16.748c-0.895,5.497-1.047,11.186-0.454,16.911    c0.555,5.35,1.851,10.696,3.853,15.888c1.867,4.841,4.426,9.493,7.604,13.827c2.915,3.973,6.568,7.757,10.566,10.943    c3.709,2.954,8.058,5.547,12.577,7.498c4.18,1.805,8.868,3.113,13.557,3.783c4.322,0.618,8.993,0.648,13.505,0.087    c4.147-0.516,8.471-1.665,12.504-3.321c3.692-1.517,7.391-3.664,10.697-6.209c3.015-2.321,5.88-5.227,8.284-8.403    c2.184-2.884,4.084-6.271,5.495-9.793c1.276-3.185,2.166-6.762,2.575-10.346c0.368-3.222,0.284-6.711-0.241-10.092    c-1.602-10.3-8.109-19.705-17.473-24.448c-6.242-3.162-13.827-3.916-20.322-1.315c-7.641,3.061-15.797,13.098-10.31,21.311    c4.258,6.303,12.183,6.598,11.888,16.461c-0.17,5.682-3.94,11.097-9.21,13.228c-7.676,3.105-16.599-0.803-22.494-6.618    c-12.082-11.92-14.948-31.694-7.982-47.171C63.314,31.283,84.51,20.112,104.949,21.5c5.149,0.35,10.358,1.412,15.064,3.071    c5.039,1.778,9.942,4.282,14.18,7.24c4.529,3.163,8.727,7.012,12.138,11.132c3.64,4.395,6.762,9.384,9.031,14.429    c2.415,5.37,4.156,11.191,5.034,16.835c0.831,5.346,1.028,10.899,0.591,16.186h190.026c-0.438-5.287-0.24-10.84,0.591-16.186    c0.878-5.644,2.618-11.466,5.034-16.835c2.268-5.045,5.391-10.034,9.031-14.429c3.411-4.119,7.609-7.969,12.138-11.132    c4.238-2.958,9.141-5.462,14.18-7.24c4.706-1.66,9.915-2.722,15.064-3.071c20.44-1.388,41.636,9.783,50.186,28.779    c6.967,15.477,4.101,35.25-7.982,47.171c-5.894,5.815-14.817,9.723-22.494,6.618c-5.27-2.131-9.04-7.546-9.21-13.228    c-0.295-9.863,7.63-10.158,11.888-16.461c5.487-8.212-2.669-18.25-10.31-21.311c-6.496-2.602-14.08-1.847-20.322,1.315    c-9.364,4.743-15.871,14.148-17.473,24.448c-0.525,3.381-0.609,6.87-0.241,10.092c0.409,3.584,1.299,7.161,2.575,10.346    c1.411,3.522,3.311,6.909,5.495,9.793c2.404,3.176,5.269,6.082,8.284,8.403c3.306,2.545,7.004,4.692,10.697,6.209    c4.033,1.657,8.357,2.805,12.504,3.321c4.512,0.561,9.183,0.531,13.505-0.087c4.689-0.67,9.377-1.978,13.557-3.783    c4.519-1.951,8.868-4.544,12.577-7.498c3.997-3.186,7.651-6.97,10.566-10.943c3.179-4.334,5.737-8.986,7.604-13.827    c2.002-5.192,3.298-10.538,3.853-15.888C482.903,69.244,482.751,63.554,481.856,58.058z" data-original="#000000" class="active-path" data-old_color="#000000" fill="#2C7695"/>
	</g>
</g></g> </svg>
