<?xml version="1.0"?>
<svg xmlns="http://www.w3.org/2000/svg" id="Capa_1" enable-background="new 0 0 512 512" height="512px" viewBox="0 0 512 512" width="512px"><g transform="matrix(-1.83697e-16 -1 -1 1.83697e-16 512 512)"><g><path d="m389.411 4.735-5.068 14.121c-7.055 19.693-26.55 31.291-46.479 29.464v366.682l136.273-379.871z" data-original="#000000" class="active-path" data-old_color="#000000" fill="#2C7695"/><path d="m181.857 218.061-10.357-10.87-2.138 15.074-14.121 7.133 14.121 7.134 2.138 15.073 10.357-10.883 15.146 2.666-7.177-13.99 7.177-13.989z" data-original="#000000" class="active-path" data-old_color="#000000" fill="#2C7695"/><path d="m307.863 361v-361h-90v15c0 24.814-20.186 46-45 46s-45-21.186-45-46v-15h-90v361h60v30h-60v121h90v-15c0-24.814 20.186-45 45-45s45 20.186 45 45v15h90v-121h-60v-30zm-150 30h-30v-30h30zm60 0h-30v-30h30zm-25.371-117.935-41.997 44.136-8.643-60.952-53.115-26.851 53.115-26.851 8.643-60.952 41.997 44.15 58.784-10.327-27.729 53.979 27.715 54.009z" data-original="#000000" class="active-path" data-old_color="#000000" fill="#2C7695"/></g></g> </svg>
