<?xml version="1.0" encoding="iso-8859-1"?>
<!-- Generator: Adobe Illustrator 19.0.0, SVG Export Plug-In . SVG Version: 6.00 Build 0)  -->
<svg version="1.1" id="Capa_1" xmlns="http://www.w3.org/2000/svg" xmlns:xlink="http://www.w3.org/1999/xlink" x="0px" y="0px"
	 viewBox="0 0 512 512" style="enable-background:new 0 0 512 512;" xml:space="preserve">
<path style="fill:#1E88E5;" d="M170.667,213.333c0,7.466-1.28,14.72-3.201,21.547c-7.68,29.652-30.932,52.906-60.586,60.586
	c0.639-8.96,2.773-17.28,6.613-24.96c12.586-6.186,22.827-16.427,29.013-29.013c3.84-7.681,5.974-16,6.613-24.961
	c0-1.066,0.214-2.133,0.214-3.199c0-35.201-28.799-64-64-64s-64,28.799-64,64c0,35.199,28.799,64,64,64
	c1.066,0,2.133-0.214,3.201-0.214c-1.921,6.827-3.201,14.079-3.201,21.547C38.186,298.667,0,260.479,0,213.333
	C0,166.186,38.186,128,85.333,128S170.667,166.186,170.667,213.333z"/>
<path style="fill:#FFCA28;" d="M234.453,295.466c0,1.066,0.214,2.134,0.214,3.201c0,35.199-28.799,64-64,64s-64-28.801-64-64
	c0-1.066,0.214-2.134,0.214-3.201c0.639-8.96,2.773-17.28,6.613-24.96c6.186-12.587,16.427-22.827,29.013-29.013
	c3.84-7.681,5.974-16,6.613-24.961c-29.654,7.681-52.906,30.934-60.586,60.587c-1.921,6.827-3.201,14.079-3.201,21.547
	c0,47.146,38.186,85.333,85.333,85.333S256,345.813,256,298.667C248.534,298.667,241.28,297.387,234.453,295.466z M173.867,234.88
	c8.96,0.639,17.28,2.773,24.96,6.613c12.586,6.186,22.827,16.426,29.013,29.013c7.68,3.84,16,5.973,24.96,6.613
	c-7.68-29.654-30.932-52.906-60.586-60.587c-6.827-1.919-14.081-3.199-21.547-3.199c0,7.466-1.28,14.72-3.201,21.547
	c1.068,0,2.134-0.214,3.201-0.214S172.799,234.88,173.867,234.88z"/>
<path d="M256,128c-47.147,0-85.333,38.186-85.333,85.333c7.466,0,14.72,1.28,21.547,3.199c0-1.066-0.214-2.133-0.214-3.199
	c0-35.201,28.799-64,64-64s64,28.799,64,64c0,1.066-0.214,2.133-0.214,3.199c-0.639,8.961-2.773,17.28-6.613,24.961
	c-6.186,12.586-16.427,22.827-29.013,29.013c-3.84,7.68-5.974,16-6.613,24.96c29.654-7.68,52.906-30.934,60.586-60.586
	c1.921-6.827,3.201-14.081,3.201-21.547C341.333,166.186,303.147,128,256,128z M252.799,277.12c-8.96-0.641-17.28-2.773-24.96-6.613
	c-12.586-6.186-22.827-16.427-29.013-29.013c-7.68-3.84-16-5.974-24.96-6.613c7.68,29.652,30.932,52.906,60.586,60.586
	c6.827,1.921,14.081,3.201,21.547,3.201c0-7.467,1.28-14.72,3.201-21.547c-1.068,0-2.134,0.214-3.201,0.214
	S253.867,277.12,252.799,277.12z"/>
<path style="fill:#D32F2F;" d="M512,213.333c0,47.146-38.186,85.333-85.333,85.333c-7.466,0-14.72-1.28-21.547-3.201
	c-29.654-7.68-52.906-30.934-60.586-60.586c8.96,0.639,17.28,2.773,24.96,6.613c6.186,12.586,16.427,22.827,29.013,29.013
	c7.68,3.84,16,5.973,24.96,6.613c1.068,0,2.134,0.214,3.201,0.214c35.201,0,64-28.801,64-64c0-35.201-28.799-64-64-64
	s-64,28.799-64,64c0,1.066,0.214,2.133,0.214,3.199c-6.827-1.919-14.081-3.199-21.547-3.199c0-47.147,38.186-85.333,85.333-85.333
	S512,166.186,512,213.333z"/>
<path style="fill:#7CB342;" d="M405.12,295.466c0,1.066,0.214,2.134,0.214,3.201c0,35.199-28.799,64-64,64s-64-28.801-64-64
	c0-1.066,0.214-2.134,0.214-3.201c0.639-8.96,2.773-17.28,6.613-24.96c6.186-12.587,16.427-22.827,29.013-29.013
	c3.84-7.681,5.974-16,6.613-24.961c-29.654,7.681-52.906,30.934-60.586,60.587c-1.921,6.827-3.201,14.079-3.201,21.547
	C256,345.813,294.186,384,341.333,384s85.333-38.188,85.333-85.333C419.201,298.667,411.947,297.387,405.12,295.466z
	 M344.534,234.88c8.96,0.639,17.28,2.773,24.96,6.613c12.586,6.186,22.827,16.426,29.013,29.013c7.68,3.84,16,5.973,24.96,6.613
	c-7.68-29.654-30.932-52.906-60.586-60.587c-6.827-1.919-14.081-3.199-21.547-3.199c0,7.466-1.28,14.72-3.201,21.547
	c1.068,0,2.134-0.214,3.201-0.214S343.466,234.88,344.534,234.88z"/>
<linearGradient id="SVGID_1_" gradientUnits="userSpaceOnUse" x1="-45.3082" y1="640.3622" x2="-24.9157" y2="630.853" gradientTransform="matrix(21.3333 0 0 -21.3333 996.3334 13791.667)">
	<stop  offset="0" style="stop-color:#FFFFFF;stop-opacity:0.2"/>
	<stop  offset="1" style="stop-color:#FFFFFF;stop-opacity:0"/>
</linearGradient>
<path style="fill:url(#SVGID_1_);" d="M426.667,128c-47.063,0-85.333,38.281-85.333,85.333C341.333,166.281,303.063,128,256,128
	s-85.333,38.281-85.333,85.333c0-47.052-38.271-85.333-85.333-85.333S0,166.281,0,213.333s38.271,85.333,85.333,85.333
	c0,47.052,38.271,85.333,85.333,85.333S256,345.719,256,298.667C256,345.719,294.271,384,341.333,384s85.333-38.281,85.333-85.333
	c47.063,0,85.333-38.281,85.333-85.333S473.729,128,426.667,128z M85.333,277.333c-35.292,0-64-28.708-64-64s28.708-64,64-64
	s64,28.708,64,64c0,1.072-0.264,2.069-0.316,3.128c-29.585,7.814-52.742,30.974-60.556,60.556
	C87.402,277.069,86.405,277.333,85.333,277.333z M142.534,241.466c-6.241,12.626-16.44,22.826-29.066,29.066
	C119.708,257.906,129.908,247.707,142.534,241.466z M234.667,298.667c0,35.292-28.708,64-64,64s-64-28.708-64-64
	c0-1.072,0.264-2.069,0.316-3.128c29.585-7.814,52.742-30.974,60.556-60.556c1.059-0.052,2.056-0.316,3.128-0.316
	s2.069,0.264,3.128,0.316c7.814,29.582,30.971,52.742,60.556,60.556C234.402,296.598,234.667,297.595,234.667,298.667z
	 M198.801,241.466c12.626,6.241,22.826,16.44,29.066,29.066C215.241,264.292,205.042,254.092,198.801,241.466z M256,277.333
	c-1.072,0-2.069-0.264-3.128-0.316c-7.814-29.582-30.971-52.742-60.556-60.556c-0.052-1.059-0.316-2.056-0.316-3.128
	c0-35.292,28.708-64,64-64s64,28.708,64,64c0,1.072-0.264,2.069-0.316,3.128c-29.585,7.814-52.742,30.974-60.556,60.556
	C258.069,277.069,257.072,277.333,256,277.333z M313.201,241.466c-6.241,12.626-16.44,22.826-29.066,29.066
	C290.375,257.906,300.574,247.707,313.201,241.466z M405.333,298.667c0,35.292-28.708,64-64,64s-64-28.708-64-64
	c0-1.072,0.264-2.069,0.316-3.128c29.585-7.814,52.742-30.974,60.556-60.556c1.059-0.052,2.056-0.316,3.128-0.316
	s2.069,0.264,3.128,0.316c7.814,29.582,30.971,52.742,60.556,60.556C405.069,296.598,405.333,297.595,405.333,298.667z
	 M369.467,241.466c12.626,6.241,22.826,16.44,29.066,29.066C385.908,264.292,375.708,254.092,369.467,241.466z M426.667,277.333
	c-1.072,0-2.069-0.264-3.128-0.316c-7.814-29.582-30.971-52.742-60.556-60.556c-0.052-1.059-0.316-2.056-0.316-3.128
	c0-35.292,28.708-64,64-64s64,28.708,64,64S461.958,277.333,426.667,277.333z"/>
<g>
</g>
<g>
</g>
<g>
</g>
<g>
</g>
<g>
</g>
<g>
</g>
<g>
</g>
<g>
</g>
<g>
</g>
<g>
</g>
<g>
</g>
<g>
</g>
<g>
</g>
<g>
</g>
<g>
</g>
</svg>
