<svg id="Capa_1" enable-background="new 0 0 512 512" height="512" viewBox="0 0 512 512" width="512" xmlns="http://www.w3.org/2000/svg"><g><g><path clip-rule="evenodd" d="m210.554 320.405c26.515 119.673 113.8 202.084 194.894 184.124 81.123-17.989 125.394-129.573 98.849-249.246-4.585-20.734-11.009-40.358-18.894-58.522-4.994-11.477-8.41-17.668-18.397-8.41-45.088 41.789-133.132 67.488-203.655 63.721-33.32 3.446-52.972 21.464-55.309 55.953.76 4.115 1.578 8.233 2.512 12.38z" fill="#9fd4fe" fill-rule="evenodd"/></g><g><path clip-rule="evenodd" d="m458.976 205.608c7.914 18.164 14.338 37.788 18.923 58.522 23.858 107.554-9.491 208.596-75.4 241.011.993-.204 1.986-.409 2.949-.613 81.123-17.989 125.394-129.573 98.849-249.246-4.585-20.734-11.009-40.358-18.894-58.522-4.994-11.477-8.41-17.668-18.397-8.41-3.621 3.358-7.505 6.6-11.622 9.725 1.197 2.072 2.336 4.613 3.592 7.533z" fill="#72bffc" fill-rule="evenodd"/></g><g><path clip-rule="evenodd" d="m2.256 147.407c-3.037 23.975-2.979 47.133 0 68.597 7.709 55.485 34.896 99.611 78.028 116.694 40.211 15.945 86.38 5.257 127.759-24.676 19.945-14.455 38.78-33.35 55.309-55.953 15.068-20.588 28.238-44.213 38.547-70.291 7.826-19.741 13.521-39.599 17.171-59.077 2.307-12.265 2.949-19.303-10.513-17.259-75.487 11.564-191.887-34.547-238.989-94.646-8.381-10.717-12.732-5.14-19.478 5.373-10.66 16.705-20.121 35.044-27.918 54.785-10.192 25.669-16.733 51.485-19.916 76.453z" fill="#ff8086" fill-rule="evenodd"/></g><g><path clip-rule="evenodd" d="m298.189 302.679c-43.657-11.126-42.723 32.035-27.742 47.338 6.278 6.395 10.717 5.549 18.339 3.884l24.092-5.344c44.504-11.419 6.395-40.534-14.689-45.878z" fill="#eceaec" fill-rule="evenodd"/></g><g><path clip-rule="evenodd" d="m417.363 276.25c-16.82 13.755-39.072 56.245 6.103 47.776l24.092-5.344c7.593-1.665 12.002-2.803 14.951-11.272 7.125-20.18-10.25-59.691-45.146-31.16z" fill="#eceaec" fill-rule="evenodd"/></g><g><path clip-rule="evenodd" d="m377.414 374.663c-35.072 7.768-57.791 41.264-52.71 76.249.526 3.534 1.285 4.556 4.38 1.811 15.623-13.755 36.911-23.625 59.28-28.59 22.369-4.935 45.847-4.994 65.821.876 3.942 1.168 4.234-.088 3.183-3.504-10.161-33.846-44.911-54.609-79.954-46.842z" fill="#eceaec" fill-rule="evenodd"/></g><g><path clip-rule="evenodd" d="m182.958 289.128c-41.379 29.962-87.518 40.621-127.73 24.676-3.913-1.519-7.68-3.3-11.301-5.257 10.396 10.455 22.573 18.69 36.357 24.151 40.211 15.945 86.38 5.257 127.759-24.676 19.945-14.455 38.78-33.35 55.309-55.953 15.068-20.588 28.238-44.213 38.547-70.291 7.826-19.741 13.521-39.599 17.171-59.077 2.307-12.265 2.949-19.303-10.513-17.259-4.906.759-9.958 1.256-15.185 1.548-13.726 69.211-52.886 140.495-110.414 182.138z" fill="#f76672" fill-rule="evenodd"/></g><g><path clip-rule="evenodd" d="m104.667 105.443c-29.903-33.7-53.323 2.57-49.497 23.625 1.577 8.819 5.753 10.63 12.995 13.492l22.924 9.082c43.277 15.535 28.033-29.963 13.578-46.199z" fill="#eceaec" fill-rule="evenodd"/></g><g><path clip-rule="evenodd" d="m50.03 184.173c-12.995 41.497 8.06 86.586 49.118 102.852 39.54 15.653 83.839-.847 104.018-37 .759-1.402 1.519-2.833 2.219-4.293.38-.788.701-1.489.905-2.103.788-2.395-.088-3.271-4.117-2.774-25.377 3.242-53.849-1.373-80.072-11.769-26.194-10.366-50.111-26.486-66.405-46.256-3.242-3.913-4.351-2.833-5.666 1.343z" fill="#eceaec" fill-rule="evenodd"/></g><g><path clip-rule="evenodd" d="m218.176 150.386c-21.668 1.957-63.923 24.676-21.756 42.987l22.924 9.082c7.242 2.862 11.535 4.38 18.718-.934 17.2-12.733 24.968-55.194-19.886-51.135z" fill="#eceaec" fill-rule="evenodd"/></g><g><path clip-rule="evenodd" d="m94.038 121.855c6.746 7.622 13.696 21.639 14.718 32.824 20.295-2.541 7.826-35.832-4.088-49.236-23.04-25.932-42.226-10.425-48.067 7.71 9.111-7.506 22.456-8.148 37.437 8.702z" fill="#dad8db" fill-rule="evenodd"/></g><g><path clip-rule="evenodd" d="m207.517 166.798c31.509-2.833 37.057 17.259 31.626 33.875 16.441-13.638 22.953-54.259-20.967-50.287-15.565 1.402-41.73 13.521-39.627 27.013 8.497-5.754 20.383-9.813 28.968-10.601z" fill="#dad8db" fill-rule="evenodd"/></g><g><path clip-rule="evenodd" d="m194.493 262.7c3.212-3.913 6.132-8.118 8.673-12.674 1.022-1.869 2.453-4.351 3.125-6.395.788-2.395-.088-3.271-4.117-2.774-25.377 3.242-53.849-1.373-80.072-11.769-26.195-10.368-50.112-26.488-66.406-46.258-3.241-3.913-4.351-2.833-5.665 1.343-1.752 5.607-2.891 11.272-3.446 16.908 41.058 47.864 83.05 58.728 147.908 61.619z" fill="#dad8db" fill-rule="evenodd"/></g><g><path clip-rule="evenodd" d="m265.833 343.621c.701-14.631 10.834-27.451 36.999-20.792 8.877 2.249 20.792 8.732 28.268 16.324 10.688-13.433-16.353-32.269-32.911-36.474-38.546-9.813-42.313 22.661-32.356 40.942z" fill="#dad8db" fill-rule="evenodd"/></g><g><path clip-rule="evenodd" d="m422.006 296.4c20.587-16.85 35.101-9.958 42.051 2.657.905-20.705-16.207-47.747-46.694-22.807-13.287 10.863-29.932 39.628-14.134 47.104 3.533-10.104 11.652-21.114 18.777-26.954z" fill="#dad8db" fill-rule="evenodd"/></g><g><path clip-rule="evenodd" d="m382.057 394.813c28.881-6.395 57.557 6.571 72.45 30.283 3.65.993 3.884-.263 2.862-3.592-10.162-33.846-44.913-54.609-79.955-46.841-35.072 7.768-57.791 41.264-52.71 76.249.526 3.534 1.285 4.556 4.38 1.811.058-.029.088-.058.117-.088 3.563-27.655 24.034-51.426 52.856-57.822z" fill="#dad8db" fill-rule="evenodd"/></g></g></svg>