<svg id="icons" enable-background="new 0 0 64 64" height="512" viewBox="0 0 64 64" width="512" xmlns="http://www.w3.org/2000/svg"><path d="m46 10.5c-.553 0-1-.447-1-1 0-3.859-3.141-7-7-7s-7 3.141-7 7c0 .553-.447 1-1 1s-1-.447-1-1c0-4.963 4.037-9 9-9s9 4.037 9 9c0 .553-.447 1-1 1z" fill="#545c66"/><path d="m30 14.5c-.553 0-1-.447-1-1v-4c0-.553.447-1 1-1s1 .447 1 1v4c0 .553-.447 1-1 1z" fill="#545c66"/><path d="m46 14.5c-.553 0-1-.447-1-1v-4c0-.553.447-1 1-1s1 .447 1 1v4c0 .553-.447 1-1 1z" fill="#545c66"/><path d="m60 63.5h-12l6-5z" fill="#e29f33"/><path d="m60 13.5v50l-6-5v-45z" fill="#edab37"/><path d="m54 13.5v45l-6 5v-50z" fill="#f6bb42"/><path d="m23.01 39.5c1.101 0 2-.89 2-2v-2h-3-3.01-3v2c0 1.11.9 2 2 2h1v16.5c0 .83.68 1.5 1.51 1.5.82 0 1.5-.67 1.5-1.5v-16.5zm24.99-26v50h-44v-50h14 12 4 12zm-11 31v-10.01c0-3.87-3.13-7-7-7v.01 17 11.5c0 .83.67 1.5 1.5 1.5s1.5-.67 1.5-1.5v-11.5z" fill="#ffce54"/><path d="m34 10.5c-.553 0-1-.447-1-1 0-3.859-3.141-7-7-7s-7 3.141-7 7c0 .553-.447 1-1 1s-1-.447-1-1c0-4.963 4.037-9 9-9s9 4.037 9 9c0 .553-.447 1-1 1z" fill="#656d78"/><path d="m18 21.5c-.553 0-1-.447-1-1v-11c0-.553.447-1 1-1s1 .447 1 1v11c0 .553-.447 1-1 1z" fill="#656d78"/><path d="m34 21.5c-.553 0-1-.447-1-1v-11c0-.553.447-1 1-1s1 .447 1 1v11c0 .553-.447 1-1 1z" fill="#656d78"/><g fill="#545c66"><path d="m16.004 38.503c-.553 0-1-.447-1-1v-10.006c0-.553.447-1 1-1s1 .447 1 1v10.006c0 .553-.447 1-1 1z"/><path d="m25.007 38.503c-.553 0-1-.447-1-1v-10.006c0-.553.447-1 1-1s1 .447 1 1v10.006c0 .553-.447 1-1 1z"/><path d="m19.004 36.501c-.553 0-1-.447-1-1v-8.004c0-.553.447-1 1-1s1 .447 1 1v8.004c0 .553-.447 1-1 1z"/><path d="m22.007 36.501c-.553 0-1-.447-1-1v-8.004c0-.553.447-1 1-1s1 .447 1 1v8.004c0 .553-.447 1-1 1z"/><path d="m22.51 39h-4.01v17c0 1.103.901 2 2.01 2 1.103 0 2-.897 2-2z"/><path d="m33 44h-4v12c0 1.103.897 2 2 2s2-.897 2-2z"/></g><path d="m25.01 34.5h-9.01c-.553 0-1 .447-1 1v2c0 1.654 1.346 3 3 3h5.01c1.654 0 3-1.346 3-3v-2c0-.553-.447-1-1-1z" fill="#656d78"/><path d="m30 26.49c-.553 0-1 .457-1 1.01v17c0 .553.447 1 1 1h7c.553 0 1-.447 1-1v-10.01c0-4.411-3.589-8-8-8z" fill="#656d78"/></svg>