<?xml version="1.0"?>
<svg xmlns="http://www.w3.org/2000/svg" height="512px" viewBox="0 0 512.002 512" width="512px" class=""><g><path d="m193.644531 492h124.710938c5.519531 0 10 4.480469 10 10 0 5.523438-4.480469 10-10 10h-124.710938c-5.523437 0-10-4.476562-10-10 0-5.519531 4.476563-10 10-10zm0 0" fill="#6770e6" data-original="#6770E6" class="active-path" style="fill:#5F7D95" data-old_color="#6770e6"/><path d="m266 367.289062v124.710938h-20v-124.710938zm0 0" fill="#5861c7" data-original="#5861C7" class="" style="fill:#5F7D95" data-old_color="#5861c7"/><path d="m246 335.242188v-325.242188c0-5.519531 4.476562-10 10-10s10 4.480469 10 10v325.242188zm0 0" fill="#5861c7" data-original="#5861C7" class="" style="fill:#5F7D95" data-old_color="#5861c7"/><path d="m256 0c-5.523438 0-10 4.480469-10 10v10c0-5.519531 4.476562-10 10-10s10 4.480469 10 10v-10c0-5.519531-4.476562-10-10-10zm0 0" fill="#6770e6" data-original="#6770E6" class="active-path" style="fill:#5F7D95" data-old_color="#6770e6"/><path d="m505.558594 488.144531h-163.324219c-2.648437 0-4.796875-2.148437-4.796875-4.800781v-36.402344c0-2.652344 2.148438-4.800781 4.796875-4.800781h169.765625v39.558594c0 3.558593-2.882812 6.445312-6.441406 6.445312zm0 0" fill="#b665c2" data-original="#B665C2" class="" style="fill:#C12020" data-old_color="#b665c2"/><path d="m466 393.382812h-129.195312c-7.113282 0-12.882813 5.769532-12.882813 12.882813v22.992187c0 7.113282 5.769531 12.886719 12.882813 12.886719h129.195312zm0 0" fill="#69ebfc" data-original="#69EBFC" class="" style="fill:#EDD4C2" data-old_color="#69ebfc"/><path d="m378.550781 487.863281h-19.269531v19.296875c0 2.671875 2.167969 4.839844 4.84375 4.839844h9.582031c2.675781 0 4.84375-2.167969 4.84375-4.839844zm0 0" fill="#ea82fa" data-original="#EA82FA" class="" style="fill:#C12020" data-old_color="#ea82fa"/><path d="m499.972656 487.863281h-19.269531v19.296875c0 2.671875 2.167969 4.839844 4.84375 4.839844h9.582031c2.675782 0 4.84375-2.167969 4.84375-4.839844zm0 0" fill="#ea82fa" data-original="#EA82FA" class="" style="fill:#C12020" data-old_color="#ea82fa"/><path d="m495.128906 502h-9.582031c-2.675781 0-4.84375-2.167969-4.84375-4.839844v10c0 2.671875 2.167969 4.839844 4.84375 4.839844h9.582031c2.675782 0 4.84375-2.167969 4.84375-4.839844v-10c0 2.671875-2.167968 4.839844-4.84375 4.839844zm0 0" fill="#d476e2" data-original="#D476E2" class="" style="fill:#C12020" data-old_color="#d476e2"/><path d="m494.949219 294.898438h-11.898438c-9.414062 0-17.046875 7.632812-17.046875 17.046874v130.476563h46v-130.476563c-.003906-9.414062-7.636718-17.046874-17.054687-17.046874zm0 0" fill="#ea82fa" data-original="#EA82FA" class="" style="fill:#C12020" data-old_color="#ea82fa"/><path d="m6.441406 488.144531h163.324219c2.648437 0 4.796875-2.148437 4.796875-4.800781v-36.402344c0-2.652344-2.148438-4.800781-4.796875-4.800781h-169.765625v39.558594c0 3.558593 2.882812 6.445312 6.441406 6.445312zm0 0" fill="#b665c2" data-original="#B665C2" class="" style="fill:#C12020" data-old_color="#b665c2"/><path d="m46 393.382812h129.195312c7.117188 0 12.882813 5.769532 12.882813 12.882813v22.992187c0 7.113282-5.769531 12.886719-12.882813 12.886719h-129.195312zm0 0" fill="#69ebfc" data-original="#69EBFC" class="" style="fill:#EDD4C2" data-old_color="#69ebfc"/><path d="m133.449219 487.863281h19.269531v19.296875c0 2.671875-2.167969 4.839844-4.84375 4.839844h-9.582031c-2.675781 0-4.84375-2.167969-4.84375-4.839844zm0 0" fill="#ea82fa" data-original="#EA82FA" class="" style="fill:#C12020" data-old_color="#ea82fa"/><path d="m12.027344 487.863281h19.269531v19.296875c0 2.671875-2.167969 4.839844-4.84375 4.839844h-9.582031c-2.675782 0-4.84375-2.167969-4.84375-4.839844zm0 0" fill="#ea82fa" data-original="#EA82FA" class="" style="fill:#C12020" data-old_color="#ea82fa"/><path d="m26.453125 502h-9.582031c-2.675782 0-4.84375-2.167969-4.84375-4.839844v10c0 2.671875 2.167968 4.839844 4.84375 4.839844h9.582031c2.675781 0 4.84375-2.167969 4.84375-4.839844v-10c0 2.671875-2.167969 4.839844-4.84375 4.839844zm0 0" fill="#d476e2" data-original="#D476E2" class="" style="fill:#C12020" data-old_color="#d476e2"/><path d="m147.875 502h-9.582031c-2.675781 0-4.84375-2.167969-4.84375-4.839844v10c0 2.671875 2.167969 4.839844 4.84375 4.839844h9.582031c2.675781 0 4.84375-2.167969 4.84375-4.839844v-10c0 2.671875-2.167969 4.839844-4.84375 4.839844zm0 0" fill="#d476e2" data-original="#D476E2" class="" style="fill:#C12020" data-old_color="#d476e2"/><path d="m17.050781 294.898438h11.898438c9.414062 0 17.046875 7.632812 17.046875 17.046874v130.476563h-45.996094v-130.476563c0-9.414062 7.632812-17.046874 17.050781-17.046874zm0 0" fill="#ea82fa" data-original="#EA82FA" class="" style="fill:#C12020" data-old_color="#ea82fa"/><path d="m28.949219 294.898438h-11.898438c-9.417969 0-17.050781 7.632812-17.050781 17.046874v14c0-9.414062 7.632812-17.046874 17.050781-17.046874h11.898438c9.414062 0 17.046875 7.632812 17.046875 17.046874v-14c.003906-9.414062-7.628906-17.046874-17.046875-17.046874zm0 0" fill="#f29cff" data-original="#F29CFF" class="" style="fill:#FF9B9B" data-old_color="#f29cff"/><path d="m494.949219 294.898438h-11.898438c-9.414062 0-17.046875 7.632812-17.046875 17.046874v14c0-9.414062 7.632813-17.046874 17.046875-17.046874h11.898438c9.417969 0 17.050781 7.632812 17.050781 17.046874v-14c0-9.414062-7.632812-17.046874-17.050781-17.046874zm0 0" fill="#f29cff" data-original="#F29CFF" class="" style="fill:#FF9B9B" data-old_color="#f29cff"/><path d="m395.988281 367.289062h-279.976562c-5.523438 0-10-4.476562-10-10v-12.046874c0-5.523438 4.476562-10 10-10h279.972656c5.523437 0 10 4.476562 10 10v12.046874c.003906 5.523438-4.472656 10-9.996094 10zm0 0" fill="#6770e6" data-original="#6770E6" class="active-path" style="fill:#5F7D95" data-old_color="#6770e6"/><path d="m0 191.917969s55.03125-165.308594 256-165.308594 256 165.308594 256 165.308594zm0 0" fill="#d476e2" data-original="#D476E2" class="" style="fill:#C12020" data-old_color="#d476e2"/><path d="m256 40.609375c165.011719 0 231.625 111.425781 250.183594 151.308594h5.816406s-55.035156-165.308594-256-165.308594-256 165.308594-256 165.308594h5.816406c18.558594-39.878907 85.171875-151.308594 250.183594-151.308594zm0 0" fill="#ea82fa" data-original="#EA82FA" class="" style="fill:#C12020" data-old_color="#ea82fa"/><path d="m0 191.917969h102.398438v7.574219c0 28.273437-22.921876 51.199218-51.199219 51.199218-28.273438 0-51.199219-22.921875-51.199219-51.199218zm0 0" fill="#b665c2" data-original="#B665C2" class="" style="fill:#C12020" data-old_color="#b665c2"/><path d="m102.398438 191.917969h102.402343v7.574219c0 28.273437-22.925781 51.199218-51.199219 51.199218-28.277343 0-51.203124-22.921875-51.203124-51.199218zm0 0" fill="#edd4c2" data-original="#EDD4C2" class=""/><path d="m204.800781 191.917969h102.398438v7.574219c0 28.273437-22.921875 51.199218-51.199219 51.199218s-51.199219-22.921875-51.199219-51.199218zm0 0" fill="#b665c2" data-original="#B665C2" class="" style="fill:#C12020" data-old_color="#b665c2"/><path d="m307.199219 191.917969h102.402343v7.574219c0 28.273437-22.925781 51.199218-51.203124 51.199218-28.273438 0-51.199219-22.921875-51.199219-51.199218zm0 0" fill="#edd4c2" data-original="#EDD4C2" class=""/><path d="m409.601562 191.917969h102.398438v7.574219c0 28.273437-22.925781 51.199218-51.199219 51.199218-28.277343 0-51.199219-22.921875-51.199219-51.199218zm0 0" fill="#b665c2" data-original="#B665C2" class="" style="fill:#C12020" data-old_color="#b665c2"/><path d="m102.398438 191.917969s-4.640626-136.863281 153.601562-165.308594c0 0-51.199219 38.609375-51.199219 165.308594zm0 0" fill="#ffefe4" data-original="#FFEFE4" class=""/><path d="m194.566406 46.242188c15.070313-2.886719 31.214844-4.757813 48.492188-5.382813 7.417968-10.085937 12.941406-14.25 12.941406-14.25-24.050781 4.324219-44.320312 11.160156-61.433594 19.632813zm0 0" fill="#fff7f2" data-original="#FFF7F2" class=""/><path d="m409.53125 191.917969s4.640625-136.863281-153.601562-165.308594c0 0 51.199218 38.609375 51.199218 165.308594zm0 0" fill="#ffefe4" data-original="#FFEFE4" class=""/><path d="m255.933594 26.609375c.007812.007813 5.527344 4.175781 12.9375 14.246094 17.257812.625 33.386718 2.488281 48.445312 5.367187-17.101562-8.460937-37.355468-15.292968-61.382812-19.613281zm0 0" fill="#fff7f2" data-original="#FFF7F2" class=""/><path d="m373.707031 502h-9.582031c-2.675781 0-4.84375-2.167969-4.84375-4.839844v10c0 2.671875 2.167969 4.839844 4.84375 4.839844h9.582031c2.675781 0 4.84375-2.167969 4.84375-4.839844v-10c0 2.671875-2.167969 4.839844-4.84375 4.839844zm0 0" fill="#d476e2" data-original="#D476E2" class="" style="fill:#C12020" data-old_color="#d476e2"/></g> </svg>
